<?xml version="1.0" encoding="iso-8859-1"?>
<svg width="219" height="25" viewBox="0 0 219 25" fill="none" xmlns="http://www.w3.org/2000/svg">
<g id="svgGroup" stroke-linecap="round" font-size="9pt" stroke="#C50001" stroke-width="1" >
<path d="M21.3224 8.875H16.3452C16.2543 8.23106 16.0687 7.65909 15.7884 7.15909C15.5081 6.65151 15.1482 6.2197 14.7088 5.86364C14.2694 5.50757 13.7618 5.23485 13.1861 5.04545C12.6179 4.85606 12.0005 4.76136 11.3338 4.76136C10.1293 4.76136 9.08002 5.06061 8.18608 5.65909C7.29214 6.25 6.59896 7.11364 6.10653 8.25C5.61411 9.37879 5.3679 10.75 5.3679 12.3636C5.3679 14.0227 5.61411 15.4167 6.10653 16.5455C6.60653 17.6742 7.3035 18.5265 8.19744 19.1023C9.09138 19.678 10.1255 19.9659 11.2997 19.9659C11.9588 19.9659 12.5687 19.8788 13.1293 19.7045C13.6974 19.5303 14.2012 19.2765 14.6406 18.9432C15.08 18.6023 15.4437 18.1894 15.7315 17.7045C16.027 17.2197 16.2315 16.6667 16.3452 16.0455L21.3224 16.0682C21.1937 17.1364 20.8717 18.1667 20.3565 19.1591C19.849 20.1439 19.1634 21.0265 18.2997 21.8068C17.4437 22.5795 16.4209 23.1932 15.2315 23.6477C14.0497 24.0947 12.7126 24.3182 11.2202 24.3182C9.14441 24.3182 7.28835 23.8485 5.65199 22.9091C4.0232 21.9697 2.73532 20.6098 1.78835 18.8295C0.848958 17.0492 0.379261 14.8939 0.379261 12.3636C0.379261 9.82576 0.856534 7.66667 1.81108 5.88636C2.76563 4.10606 4.06108 2.75 5.69744 1.81818C7.33381 0.878787 9.17472 0.40909 11.2202 0.40909C12.5687 0.40909 13.8187 0.598484 14.9702 0.977272C16.1293 1.35606 17.1558 1.90909 18.0497 2.63636C18.9437 3.35606 19.6709 4.23864 20.2315 5.28409C20.7997 6.32954 21.1634 7.52651 21.3224 8.875ZM24.8509 24V0.727272H29.7713V10.3295H39.7599V0.727272H44.669V24H39.7599V14.3864H29.7713V24H24.8509ZM53.6463 0.727272V24H48.7259V0.727272H53.6463ZM77.1605 0.727272V24H72.9105L62.7855 9.35227H62.6151V24H57.6946V0.727272H62.0128L72.0582 15.3636H72.2628V0.727272H77.1605ZM85.2372 24H79.9645L87.9986 0.727272H94.3395L102.362 24H97.0895L91.2599 6.04545H91.0781L85.2372 24ZM84.9077 14.8523H97.3622V18.6932H84.9077V14.8523ZM113.413 24H105.163V0.727272H113.482C115.822 0.727272 117.838 1.19318 119.527 2.125C121.216 3.04924 122.516 4.37879 123.425 6.11364C124.341 7.84848 124.8 9.92424 124.8 12.3409C124.8 14.7652 124.341 16.8485 123.425 18.5909C122.516 20.3333 121.209 21.6705 119.504 22.6023C117.807 23.5341 115.777 24 113.413 24ZM110.084 19.7841H113.209C114.663 19.7841 115.887 19.5265 116.879 19.0114C117.879 18.4886 118.629 17.6818 119.129 16.5909C119.637 15.4924 119.891 14.0758 119.891 12.3409C119.891 10.6212 119.637 9.21591 119.129 8.125C118.629 7.03409 117.883 6.23106 116.891 5.71591C115.898 5.20076 114.675 4.94318 113.22 4.94318H110.084V19.7841ZM128.445 24V0.727272H137.626C139.384 0.727272 140.884 1.04167 142.126 1.67045C143.376 2.29167 144.327 3.17424 144.979 4.31818C145.638 5.45454 145.967 6.79167 145.967 8.32955C145.967 9.875 145.634 11.2045 144.967 12.3182C144.301 13.4242 143.335 14.2727 142.07 14.8636C140.812 15.4545 139.289 15.75 137.501 15.75H131.354V11.7955H136.706C137.645 11.7955 138.426 11.6667 139.047 11.4091C139.668 11.1515 140.13 10.7652 140.433 10.25C140.744 9.73485 140.899 9.0947 140.899 8.32955C140.899 7.55682 140.744 6.9053 140.433 6.375C140.13 5.8447 139.664 5.44318 139.036 5.17045C138.414 4.89015 137.63 4.75 136.683 4.75H133.365V24H128.445ZM141.013 13.4091L146.797 24H141.365L135.706 13.4091H141.013ZM149.445 24V0.727272H165.126V4.78409H154.365V10.3295H164.32V14.3864H154.365V19.9432H165.172V24H149.445ZM173.05 24H167.777L175.811 0.727272H182.152L190.175 24H184.902L179.072 6.04545H178.891L173.05 24ZM172.72 14.8523H185.175V18.6932H172.72V14.8523ZM192.976 0.727272H199.044L205.453 16.3636H205.726L212.135 0.727272H218.203V24H213.43V8.85227H213.237L207.214 23.8864H203.964L197.942 8.79545H197.749V24H192.976V0.727272Z" fill="#D32121"/>
</g>
<defs>
<filter id="filter0_i_50_8" x="0.37915" y="0.409058" width="217.824" height="27.9092" filterUnits="userSpaceOnUse" color-interpolation-filters="sRGB">
<feFlood flood-opacity="0" result="BackgroundImageFix"/>
<feBlend mode="normal" in="SourceGraphic" in2="BackgroundImageFix" result="shape"/>
<feColorMatrix in="SourceAlpha" type="matrix" values="0 0 0 0 0 0 0 0 0 0 0 0 0 0 0 0 0 0 127 0" result="hardAlpha"/>
<feOffset dy="4"/>
<feGaussianBlur stdDeviation="2"/>
<feComposite in2="hardAlpha" operator="arithmetic" k2="-1" k3="1"/>
<feColorMatrix type="matrix" values="0 0 0 0 0 0 0 0 0 0 0 0 0 0 0 0 0 0 0.25 0"/>
<feBlend mode="normal" in2="shape" result="effect1_innerShadow_50_8"/>
</filter>
</defs>
</svg>
