<?xml version="1.0" encoding="UTF-8" standalone="no"?>
<!DOCTYPE svg PUBLIC "-//W3C//DTD SVG 20010904//EN" "http://www.w3.org/TR/2001/REC-SVG-20010904/DTD/svg10.dtd">
<svg version="1.0" xmlns="http://www.w3.org/2000/svg" width="1195.000000pt" height="1280.000000pt" viewBox="0 0 1195.000000 1280.000000" preserveAspectRatio="xMidYMid meet">
<metadata>
Created by potrace 1.15, written by Peter Selinger 2001-2017
</metadata>
<g transform="translate(0.000000,1280.000000) scale(0.100000,-0.100000)" fill="#000000" stroke="none">
<path d="M6135 12790 c-61 -9 -180 -68 -218 -108 -27 -28 -31 -29 -68 -19 -22 5 -42 7 -45 4 -3 -3 6 -25 19 -49 33 -56 31 -131 -6 -211 -14 -32 -28 -57 -31 -57 -2 0 -4 35 -3 78 2 62 -2 84 -17 107 l-20 30 -24 -55 c-41 -94 -79 -125 -136 -109 -31 9 -41 7 -55 -6 -11 -9 -25 -13 -36 -9 -16 7 -34 -9 -35 -30 0 -5 31 -6 68 -4 110 8 182 -6 213 -40 28 -31 25 -8 45 -351 7 -111 6 -113 -14 -107 -19 6 -20 3 -15 -61 3 -37 11 -74 17 -82 8 -11 6 -16 -9 -25 -10 -6 -30 -23 -44 -38 -14 -16 -32 -28 -39 -28 -9 0 -4 -12 14 -32 l27 -33 -28 -5 -28 -5 36 -28 c40 -30 46 -56 27 -126 -5 -20 -19 -90 -30 -156 -12 -66 -28 -130 -36 -142 -15 -24 -48 -31 -59 -13 -3 6 -20 10 -36 10 -16 0 -46 7 -65 15 -26 11 -41 12 -55 5 -13 -8 -29 -6 -55 5 -48 20 -66 19 -87 -5 -9 -11 -24 -20 -32 -20 -24 0 -134 -39 -161 -57 -65 -42 -96 -161 -54 -203 11 -11 20 -23 20 -28 0 -11 125 -52 162 -52 18 0 45 -6 59 -14 14 -7 52 -17 83 -20 31 -4 69 -14 84 -22 15 -7 36 -14 48 -14 31 0 35 -9 18 -42 -16 -30 -49 -48 -90 -48 -20 0 -24 5 -24 29 0 16 -7 37 -16 45 -19 19 -82 20 -107 2 -9 -7 -27 -11 -40 -9 -14 3 -29 -3 -41 -16 -31 -35 -90 -28 -137 14 -27 24 -49 35 -72 36 -95 2 -109 1 -130 -18 -16 -13 -36 -19 -72 -18 -48 0 -50 1 -52 30 0 17 -2 36 -2 43 -2 21 -52 62 -75 62 -12 0 -52 -22 -90 -50 -63 -46 -79 -54 -98 -51 -4 0 -22 -17 -39 -39 -23 -28 -40 -40 -58 -40 -14 0 -33 -4 -40 -9 -38 -24 -79 49 -66 117 13 74 34 99 163 198 137 105 233 161 325 190 40 12 61 25 70 42 9 18 33 31 99 52 48 15 104 31 124 35 55 10 26 22 -70 30 -92 8 -300 -10 -361 -31 -22 -8 -46 -14 -53 -14 -22 0 -178 -78 -193 -96 -15 -19 -98 -74 -111 -74 -11 0 -10 95 2 166 6 32 25 123 42 201 17 79 28 146 24 150 -15 16 -44 -38 -56 -104 -7 -37 -21 -105 -31 -150 -31 -130 -49 -308 -42 -400 5 -74 4 -83 -12 -89 -13 -5 -25 1 -42 22 -30 38 -29 54 7 91 33 33 31 37 -32 76 -14 9 -29 25 -33 36 -4 13 -17 21 -38 23 -27 3 -36 12 -67 67 -34 60 -71 93 -87 78 -3 -4 3 -17 15 -30 12 -13 22 -26 22 -29 0 -3 -52 8 -116 25 l-116 31 -122 -23 c-66 -13 -155 -37 -196 -53 -114 -46 -173 -54 -298 -40 -59 7 -149 23 -201 37 -52 14 -96 23 -98 21 -10 -10 10 -26 67 -57 33 -17 60 -35 60 -40 0 -8 -106 -43 -168 -55 -27 -5 -32 -4 -32 12 1 37 57 234 72 251 8 10 25 37 38 60 16 29 34 46 55 53 18 6 37 22 43 35 13 28 10 30 -21 14 -96 -50 -158 -138 -191 -274 -25 -99 -41 -125 -77 -125 -9 0 -42 -26 -73 -58 l-56 -58 -91 -11 c-53 -7 -98 -18 -108 -27 -9 -8 -26 -13 -37 -10 -29 8 -54 -26 -62 -82 l-7 -48 -62 3 c-46 2 -63 -1 -70 -13 -5 -9 -27 -16 -58 -18 -42 -3 -50 -6 -53 -24 -2 -16 -13 -24 -45 -30 -29 -6 -45 -16 -52 -31 -5 -13 -16 -23 -24 -23 -31 0 -102 -62 -88 -77 2 -2 40 -10 83 -18 43 -7 96 -20 116 -27 l37 -13 -77 -55 c-130 -93 -239 -207 -218 -227 5 -5 200 20 331 41 17 3 22 3 12 0 -42 -13 8 -54 66 -54 23 0 36 -4 32 -10 -3 -6 -17 -7 -30 -4 -20 5 -27 -2 -60 -68 -36 -71 -37 -75 -31 -153 5 -56 2 -103 -9 -158 -15 -69 -15 -80 -1 -107 13 -28 13 -30 -3 -30 -20 0 -130 74 -195 131 -116 101 -359 259 -401 259 -33 0 -11 -18 67 -55 46 -22 101 -56 123 -76 22 -20 67 -54 100 -77 33 -22 107 -86 165 -142 58 -55 144 -127 191 -160 78 -54 128 -104 116 -117 -3 -2 -47 10 -97 27 l-93 32 -121 -11 c-66 -6 -143 -13 -171 -16 -56 -5 -227 -60 -295 -95 -58 -30 -108 -68 -122 -93 -9 -18 -8 -19 13 -14 13 3 111 20 218 36 107 17 205 38 217 46 29 19 100 19 307 1 174 -16 197 -25 197 -78 0 -15 -4 -28 -9 -28 -15 0 -33 29 -27 45 3 8 1 15 -4 15 -18 0 -22 -50 -9 -114 10 -52 10 -70 0 -95 -17 -40 -35 -54 -61 -46 -19 6 -21 12 -15 45 5 32 3 40 -13 49 -11 6 -23 22 -26 36 -4 17 -17 30 -35 36 -16 6 -33 21 -39 34 -7 16 -20 25 -34 25 -13 0 -32 7 -42 15 -14 11 -46 15 -107 15 -120 0 -183 -15 -228 -54 -20 -18 -62 -45 -94 -61 -60 -30 -125 -92 -110 -105 15 -15 147 -26 183 -16 55 15 286 18 379 6 90 -12 124 -25 156 -60 11 -12 32 -28 47 -36 15 -8 37 -31 47 -52 11 -21 27 -45 36 -52 9 -8 39 -57 66 -109 27 -53 58 -107 69 -121 11 -14 22 -39 26 -56 6 -31 6 -31 -53 -43 -32 -6 -72 -19 -89 -29 -65 -36 -171 -112 -224 -161 -59 -54 -59 -54 -5 -86 15 -9 11 -15 -31 -42 -158 -103 -192 -138 -134 -138 45 0 29 -20 -44 -58 -40 -21 -82 -47 -92 -58 -18 -20 -18 -20 11 -14 142 32 397 121 485 169 14 8 70 20 124 26 92 11 101 10 125 -8 40 -30 68 -99 89 -220 15 -88 16 -112 6 -112 -7 0 -40 12 -74 27 -57 24 -61 28 -55 52 3 14 8 44 10 66 4 50 22 142 29 154 3 5 -1 11 -9 15 -8 3 -17 1 -20 -4 -3 -5 -19 -12 -36 -15 -18 -4 -50 -21 -73 -39 -23 -17 -59 -38 -81 -47 -22 -9 -78 -33 -125 -52 -47 -20 -98 -39 -114 -43 -16 -4 -35 -19 -45 -35 -11 -20 -34 -35 -75 -50 l-59 -23 -23 28 c-13 15 -39 32 -56 38 -18 6 -49 23 -68 37 -30 22 -46 26 -105 27 -96 1 -210 -21 -259 -51 -136 -82 -203 -104 -301 -97 -11 1 -65 -2 -119 -6 l-99 -7 -11 -33 c-6 -18 -18 -37 -26 -42 -12 -8 -13 -13 -3 -29 8 -12 9 -22 3 -26 -17 -10 2 -35 41 -55 21 -11 44 -20 51 -20 22 0 128 -35 128 -42 0 -4 -12 -15 -26 -24 -21 -14 -27 -15 -34 -4 -7 12 -32 10 -147 -9 -135 -22 -221 -49 -244 -77 -7 -8 -30 -14 -55 -14 -26 0 -46 -5 -51 -14 -4 -7 -19 -19 -33 -26 -14 -7 -34 -21 -46 -31 -13 -13 -53 -25 -110 -34 -86 -14 -221 -49 -232 -60 -9 -9 12 -6 142 20 69 14 128 25 131 25 3 0 -10 -30 -29 -67 -49 -98 -63 -147 -75 -257 -6 -54 -16 -106 -21 -117 -7 -13 -7 -24 1 -37 9 -15 8 -29 -4 -66 -16 -47 -16 -47 6 -44 25 3 66 60 74 102 4 18 18 36 40 48 19 11 43 38 53 59 11 20 29 40 40 44 11 4 29 24 40 45 22 43 101 113 113 101 5 -5 4 -26 -2 -47 -7 -26 -7 -40 0 -44 7 -5 7 -21 0 -51 -9 -38 -8 -46 9 -59 12 -9 20 -30 22 -55 2 -28 8 -40 18 -40 9 0 21 -18 30 -45 10 -30 22 -46 35 -48 11 -2 39 -25 63 -50 25 -27 46 -42 51 -36 15 16 41 106 41 140 0 26 4 33 22 36 21 3 23 9 26 66 2 44 7 62 17 62 18 0 28 49 19 95 -5 28 -3 39 11 49 17 12 17 16 2 62 -14 43 -14 51 -1 65 12 14 12 21 -1 59 -8 23 -15 44 -15 46 0 13 232 -5 246 -19 12 -12 -15 -34 -82 -68 -100 -52 -99 -57 8 -52 51 2 97 8 103 13 6 5 44 14 83 20 67 11 76 10 120 -11 26 -12 61 -32 77 -44 17 -12 50 -31 75 -42 25 -12 54 -28 65 -37 20 -16 19 -17 -24 -56 -63 -57 -50 -65 86 -53 108 10 108 10 153 -17 41 -24 45 -30 42 -61 -4 -49 -24 -74 -73 -88 -24 -7 -73 -28 -109 -48 -36 -19 -114 -52 -175 -74 -116 -42 -211 -92 -226 -121 -11 -20 -7 -22 19 -9 67 35 257 117 305 133 75 23 99 23 128 -2 l24 -19 -27 -1 c-15 0 -39 -5 -53 -10 -25 -9 -27 -14 -20 -48 4 -20 8 -38 10 -40 2 -2 38 -12 80 -23 70 -17 83 -18 148 -5 40 8 102 17 138 20 36 3 90 13 120 20 30 8 56 13 58 11 2 -2 -11 -29 -28 -59 -36 -64 -36 -66 -16 -66 22 0 18 -20 -9 -45 -13 -12 -25 -27 -27 -34 -3 -7 -18 -15 -34 -16 -16 -2 -34 -11 -41 -19 -16 -22 -63 -20 -102 4 -27 16 -37 18 -48 9 -9 -8 -32 -9 -65 -5 -41 6 -55 4 -70 -10 -10 -9 -41 -19 -68 -22 -32 -3 -56 -11 -67 -23 -9 -11 -25 -19 -35 -19 -37 0 -101 -33 -109 -56 -5 -13 -27 -32 -50 -44 -26 -14 -45 -32 -54 -55 -8 -19 -20 -35 -25 -35 -6 0 -18 -15 -27 -32 -9 -18 -30 -48 -46 -66 -20 -23 -27 -40 -23 -53 4 -11 -1 -36 -10 -55 -20 -43 -16 -70 10 -66 11 2 34 5 52 6 18 1 49 15 71 29 21 15 45 27 54 27 8 0 22 10 30 22 11 17 18 19 33 11 17 -10 17 -11 -3 -22 -37 -20 -56 -90 -49 -189 l5 -87 -35 -37 c-27 -28 -36 -46 -36 -70 0 -18 -8 -44 -19 -57 -22 -29 -24 -71 -2 -71 10 0 14 -6 10 -17 -20 -69 -18 -123 5 -123 6 0 41 14 79 30 38 17 74 28 82 25 7 -3 39 13 72 35 39 27 70 40 91 40 27 0 41 9 73 45 28 32 47 45 66 45 19 0 33 10 52 40 18 28 32 39 43 35 11 -3 29 10 55 40 41 49 83 81 93 71 4 -3 -3 -16 -15 -29 -26 -27 -42 -69 -42 -108 0 -16 -9 -38 -20 -49 -13 -13 -22 -40 -26 -76 -5 -36 -15 -66 -29 -83 -12 -14 -28 -37 -35 -51 -7 -14 -26 -41 -42 -60 -97 -115 -203 -299 -213 -370 -5 -33 -4 -32 18 16 13 28 52 80 86 116 33 36 61 69 61 73 0 4 18 27 40 52 22 25 40 52 40 60 0 18 165 124 184 117 14 -5 88 35 101 56 3 5 16 10 29 10 14 0 34 15 55 40 18 23 50 52 70 66 21 13 44 36 51 50 13 23 18 24 54 18 23 -3 47 -9 54 -13 8 -4 50 7 95 26 45 18 87 33 93 33 7 0 17 -20 23 -45 9 -37 17 -47 46 -59 19 -8 43 -27 52 -43 12 -19 25 -27 40 -25 14 2 23 -3 28 -16 8 -26 31 -35 55 -20 15 10 23 9 40 -7 17 -16 24 -16 44 -6 13 7 36 10 52 7 16 -3 36 -2 44 4 13 8 12 15 -5 57 -10 26 -20 72 -20 102 -2 46 -6 58 -28 75 -18 15 -30 36 -36 69 -5 27 -17 55 -27 63 -18 13 -17 16 22 52 23 20 63 48 89 61 47 23 52 24 204 17 86 -4 188 -11 226 -16 39 -5 117 -6 175 -2 58 5 119 5 135 2 30 -6 30 -6 40 -100 l10 -95 40 -9 c22 -4 45 -10 51 -11 6 -2 17 -24 24 -49 12 -42 11 -48 -13 -89 -29 -49 -62 -159 -72 -239 -6 -45 -3 -57 14 -80 12 -14 21 -37 21 -50 0 -49 23 -101 64 -143 56 -59 70 -58 74 3 2 26 9 52 17 58 10 8 15 30 15 68 0 32 4 65 9 75 6 10 6 35 -1 65 -8 40 -7 50 7 66 12 13 15 27 9 55 -6 36 -6 37 17 30 13 -4 35 -18 50 -31 17 -16 37 -24 61 -24 84 0 307 -70 308 -96 0 -20 -45 -42 -111 -54 -80 -15 -111 -34 -107 -63 3 -19 9 -22 41 -21 21 1 51 11 66 22 15 11 50 30 78 42 l51 21 228 -124 c394 -215 931 -498 1145 -605 227 -113 225 -111 431 -342 101 -114 244 -242 348 -311 113 -76 282 -155 395 -184 141 -37 218 -74 249 -122 40 -60 51 -138 38 -252 -29 -246 -142 -461 -433 -827 -74 -93 -186 -239 -249 -324 -284 -387 -362 -463 -770 -746 -406 -280 -387 -269 -450 -289 -100 -32 -334 -127 -425 -172 -49 -25 -172 -99 -272 -165 -191 -125 -336 -199 -518 -266 -253 -93 -589 -183 -915 -247 -217 -42 -260 -53 -260 -64 0 -8 120 -35 265 -61 33 -6 123 -13 200 -17 430 -18 938 98 1680 385 402 155 588 211 835 248 167 26 451 24 695 -5 115 -13 305 -26 482 -31 161 -5 512 -26 780 -45 1197 -87 1533 -97 2678 -75 487 9 591 17 743 56 115 29 234 81 212 93 -14 8 -107 18 -365 41 -60 6 -201 15 -313 20 -111 6 -327 23 -480 40 -152 16 -360 38 -462 49 -468 51 -987 91 -1168 91 -51 0 -100 4 -110 9 -9 5 -69 22 -132 39 -261 69 -491 199 -653 371 -117 124 -163 254 -154 436 10 220 71 379 366 955 188 366 240 515 248 705 4 100 1 140 -18 235 -31 153 -31 301 -1 424 30 118 50 162 106 225 26 29 58 70 71 91 14 23 56 60 99 90 63 42 82 50 121 50 52 0 85 14 85 36 0 10 7 13 26 8 19 -5 32 0 52 19 15 13 37 28 49 31 12 4 28 19 35 34 15 32 47 38 108 22 32 -9 44 -18 51 -39 6 -16 19 -33 31 -38 11 -5 26 -24 32 -43 7 -21 22 -40 38 -47 14 -7 31 -26 36 -42 8 -23 15 -28 34 -24 16 3 31 -4 47 -21 39 -41 61 -30 61 30 0 18 5 24 21 24 20 0 21 4 16 43 -5 35 -3 45 13 55 42 26 18 124 -41 177 -19 17 -48 46 -64 66 -23 28 -40 38 -74 43 -24 4 -53 11 -64 17 -19 11 -19 12 8 33 l28 23 -16 46 -16 47 33 14 c18 7 46 29 62 49 16 19 45 41 64 50 19 8 54 30 78 50 23 20 50 38 60 41 28 9 214 47 258 53 l41 5 7 -48 c3 -27 13 -62 21 -77 8 -15 22 -63 31 -105 l16 -78 34 4 c21 3 34 10 34 19 0 10 6 12 20 8 25 -8 34 25 28 96 -4 35 -2 46 6 40 9 -7 44 -8 89 -2 4 1 -8 30 -28 64 -32 58 -44 97 -30 97 18 0 130 -65 176 -103 74 -60 89 -86 101 -170 11 -81 19 -99 58 -142 16 -16 30 -41 32 -55 2 -15 14 -30 31 -38 15 -7 27 -20 27 -28 0 -7 5 -14 10 -14 14 0 13 107 -2 170 -7 29 -25 66 -43 88 -17 20 -46 58 -64 85 -17 26 -37 47 -42 47 -6 0 -45 33 -88 74 -84 80 -138 105 -240 111 -41 3 -50 8 -79 46 -17 23 -40 48 -49 55 -17 11 -17 14 2 35 11 12 80 50 153 85 119 57 182 99 182 121 0 4 -4 14 -8 21 -7 10 -19 8 -58 -8 -27 -12 -58 -30 -69 -40 -43 -39 -255 -151 -255 -134 0 27 52 87 128 149 39 31 50 35 103 35 76 0 78 16 7 58 -48 30 -60 74 -26 102 36 30 56 24 86 -24 15 -24 43 -59 62 -78 62 -63 100 -119 100 -148 0 -15 6 -30 14 -33 8 -3 18 -26 21 -52 9 -54 18 -62 52 -44 22 12 27 11 39 -6 8 -10 14 -25 14 -33 0 -8 18 -37 40 -64 22 -28 40 -55 40 -59 0 -20 29 -7 53 24 28 37 27 42 -17 110 -30 44 -11 42 25 -3 19 -23 46 -56 60 -73 14 -18 33 -46 42 -63 9 -17 31 -49 51 -72 19 -23 44 -71 56 -107 47 -142 38 -35 -11 124 -48 158 -156 346 -261 457 l-40 41 30 22 c17 11 45 21 62 21 37 0 95 -32 111 -61 5 -10 36 -33 69 -49 32 -16 75 -44 94 -61 20 -17 40 -28 45 -24 6 3 15 25 21 48 22 85 41 106 69 73 6 -7 28 -16 48 -19 20 -4 46 -16 59 -28 54 -51 34 22 -29 109 -132 180 -200 239 -400 347 -26 14 -45 30 -42 35 14 23 147 0 199 -33 12 -8 53 -26 93 -41 39 -15 77 -34 83 -42 9 -9 33 -14 76 -14 70 0 91 13 101 61 3 16 9 29 13 29 15 0 59 -41 65 -60 8 -27 23 -25 36 3 9 19 5 39 -15 99 -14 41 -26 77 -26 81 0 3 17 9 38 12 63 11 100 25 106 42 5 12 1 14 -16 9 -13 -3 -49 -9 -80 -12 -67 -8 -88 4 -88 49 0 29 1 29 40 24 36 -5 40 -3 40 17 0 12 -18 43 -40 70 -22 26 -40 52 -40 56 0 4 -13 13 -29 20 -16 6 -37 21 -47 31 -10 11 -41 26 -70 35 -47 13 -55 13 -76 0 -18 -12 -32 -13 -67 -5 -29 6 -46 6 -50 0 -4 -5 -41 -17 -84 -26 -43 -9 -85 -19 -93 -22 -7 -3 -14 -1 -14 4 0 14 40 48 80 68 19 9 49 30 65 46 17 15 62 45 101 67 l71 39 129 -35 c153 -42 185 -44 218 -13 33 31 38 56 14 78 -11 10 -26 30 -34 44 -21 42 0 62 73 67 91 6 161 -13 255 -70 165 -101 228 -119 213 -60 -17 69 -103 113 -284 147 -93 17 -100 20 -83 37 20 20 104 10 222 -27 61 -19 116 -35 121 -35 14 0 10 59 -7 95 -23 50 -101 123 -143 136 -32 10 -43 8 -77 -9 -61 -32 -117 -85 -119 -112 -1 -22 -10 -26 -80 -43 -44 -9 -90 -25 -103 -33 -28 -19 -49 -12 -100 31 -26 21 -32 34 -32 65 0 22 6 43 16 51 21 17 100 14 202 -9 58 -13 82 -15 82 -7 0 16 -47 57 -103 89 -27 16 -45 32 -40 36 4 4 73 31 153 60 144 52 226 88 218 95 -2 3 -60 -9 -129 -26 -91 -22 -145 -42 -203 -75 -43 -24 -81 -44 -85 -44 -22 2 -56 51 -92 133 -35 83 -50 104 -114 166 -52 51 -96 82 -151 109 -123 59 -128 62 -104 77 15 9 12 57 -5 98 -21 50 -20 50 26 26 36 -18 45 -19 66 -8 20 11 28 10 52 -4 36 -21 51 -22 51 -2 0 10 10 15 33 15 30 -1 74 -21 240 -114 37 -21 67 -35 67 -32 0 3 -36 32 -79 65 -78 60 -103 93 -83 113 11 11 -1 75 -17 91 -6 6 -11 28 -11 49 0 27 -6 41 -20 50 -11 7 -20 22 -20 34 0 25 -15 39 -53 48 -16 4 -31 16 -37 30 -9 24 -56 41 -84 30 -9 -3 -38 -1 -67 5 -92 20 -294 -20 -401 -79 -21 -12 -99 14 -124 41 -25 28 -12 46 64 89 34 19 69 45 77 57 20 29 117 121 159 150 17 13 53 26 80 29 53 8 154 58 163 81 4 9 -1 20 -11 25 -18 10 -49 75 -43 92 4 12 -62 54 -107 67 -39 11 -102 -4 -132 -32 -32 -30 -39 -75 -24 -153 13 -71 4 -106 -30 -106 -10 0 -32 -17 -47 -37 -29 -39 -45 -54 -51 -48 -9 9 23 132 38 145 17 14 17 21 4 105 -16 105 -19 289 -4 280 5 -3 23 1 39 10 19 9 56 15 99 15 50 0 73 4 82 15 7 8 29 15 48 15 47 0 109 42 117 80 9 41 -12 143 -32 158 -9 6 -31 13 -47 14 -66 3 -92 6 -131 17 -22 6 -68 11 -103 11 -41 0 -64 4 -66 13 -2 6 -12 42 -21 79 -9 37 -26 77 -36 90 -10 13 -33 40 -49 60 -17 20 -40 63 -51 96 -18 53 -102 201 -129 227 -5 6 -32 28 -59 50 -29 24 -50 50 -52 64 -3 20 -16 30 -64 48 -33 13 -67 31 -76 42 -8 10 -42 33 -75 50 -32 17 -70 40 -84 51 -14 11 -57 32 -95 47 -61 23 -88 27 -209 30 -104 3 -152 0 -191 -12 -84 -24 -95 -21 -95 22 0 20 9 56 21 80 20 42 22 43 58 37 33 -7 35 -6 22 9 -7 10 -20 17 -27 17 -26 0 -14 30 19 50 33 20 156 63 214 75 18 4 39 15 46 25 9 13 37 24 80 32 51 10 67 17 67 29 0 11 23 28 65 48 53 24 65 34 65 54 0 16 14 34 45 57 48 36 49 38 36 59 -7 10 -4 23 8 40 25 37 32 59 18 64 -8 3 -5 18 11 51 26 56 27 60 5 81 -13 14 -28 16 -78 10 -49 -5 -64 -3 -74 9 -17 21 -41 20 -70 -1 -15 -10 -41 -15 -71 -14 -39 1 -54 -4 -81 -26 -19 -16 -42 -26 -55 -25 -16 2 -29 -6 -46 -28 -13 -18 -33 -36 -45 -41 -14 -5 -26 -22 -33 -47 -6 -23 -21 -47 -35 -56 -14 -9 -25 -24 -25 -32 0 -9 -9 -27 -19 -41 -11 -13 -25 -48 -31 -78 -6 -30 -20 -66 -32 -80 -17 -22 -20 -37 -16 -95 4 -73 0 -81 -23 -53 -15 18 -19 231 -5 331 4 30 3 52 -3 52 -18 0 -31 -63 -36 -174 -8 -145 -14 -196 -25 -196 -5 0 -29 13 -52 29 -31 21 -73 36 -148 51 -99 21 -112 22 -238 10 -73 -7 -135 -10 -138 -7 -10 10 22 53 58 81 19 14 82 39 143 56 181 53 184 70 3 25 -57 -15 -120 -25 -147 -23 -44 3 -46 5 -49 35 -6 61 36 117 247 329 l133 134 48 0 c40 0 55 -6 91 -35 49 -42 82 -43 88 -5 1 14 8 28 13 31 7 4 6 14 -1 28 -29 54 63 -11 138 -97 50 -58 81 -82 81 -63 0 25 -131 199 -180 239 -30 24 -55 49 -55 55 0 21 66 56 138 72 176 40 451 46 532 11 48 -21 99 -68 116 -107 13 -34 35 -38 44 -9 3 11 10 20 14 20 13 0 46 -43 66 -85 17 -36 19 -37 23 -17 2 15 9 22 17 18 15 -5 15 1 -6 107 -12 65 -11 117 2 117 7 0 30 -20 51 -44 22 -25 46 -42 53 -40 8 3 27 -14 45 -40 17 -25 35 -46 40 -46 6 0 32 -23 59 -51 27 -28 55 -49 63 -47 16 6 31 99 18 112 -6 6 -10 22 -10 36 0 15 -12 42 -27 62 -126 160 -123 157 -228 209 -55 27 -116 51 -135 54 -19 2 -73 9 -118 16 -73 10 -88 10 -118 -5 -40 -19 -74 -21 -74 -4 0 6 -7 4 -18 -5 -22 -20 -90 -22 -176 -6 -32 6 -60 8 -63 6 -2 -3 3 -17 12 -31 10 -14 15 -32 12 -39 -8 -22 -165 -99 -258 -127 -47 -14 -101 -36 -121 -48 -38 -23 -92 -29 -104 -11 -3 6 -17 8 -31 4 -14 -3 -31 -1 -39 6 -10 8 -22 8 -45 0 -43 -15 -98 -14 -200 4 -223 39 -489 47 -547 16 -17 -9 -29 -6 -71 20 -31 20 -51 39 -51 50 0 10 -10 24 -22 30 l-22 12 23 8 c35 14 97 13 216 -1 61 -7 132 -12 159 -11 26 0 74 -6 104 -14 31 -8 59 -12 62 -9 12 12 -61 56 -160 97 -170 71 -376 87 -585 46 -119 -23 -150 -34 -190 -68 -17 -15 -56 -35 -88 -46 l-57 -19 -112 27 c-62 14 -131 29 -153 32 -37 6 -202 42 -234 51 -11 4 -10 9 5 26 l19 21 -40 -6 c-22 -3 -56 -9 -75 -12 -31 -6 -37 -4 -50 19 -19 36 -6 47 97 81 148 48 256 66 443 72 98 3 166 9 155 14 -63 24 -215 41 -312 36 -90 -5 -104 -4 -115 11 -27 36 -67 53 -106 46 -52 -9 -106 -41 -126 -75 -11 -18 -22 -26 -32 -22 -8 3 -26 0 -38 -7 -18 -9 -29 -9 -45 -1 -19 11 -21 9 -21 -14 0 -25 0 -25 -31 -10 -28 15 -34 15 -80 -1 -48 -18 -49 -18 -88 4 -22 13 -78 29 -123 37 -46 8 -99 17 -119 21 l-37 6 5 -46 c5 -42 4 -46 -16 -46 l-21 0 20 -32 c14 -24 16 -35 8 -45 -8 -10 -6 -19 10 -36 12 -13 26 -37 32 -54 8 -21 26 -39 61 -58 28 -15 53 -33 56 -41 3 -7 30 -21 60 -31 46 -15 58 -23 74 -56 19 -36 19 -40 4 -63 -8 -13 -17 -24 -19 -24 -3 0 -18 14 -34 30 -57 57 -151 31 -199 -55 -12 -22 -20 -41 -18 -43 2 -3 44 4 94 14 71 14 95 16 115 6 64 -29 -3 -71 -129 -81 -52 -4 -91 -13 -108 -24 -33 -22 -46 -16 -40 18 5 22 -1 27 -41 45 -25 10 -46 26 -46 33 0 8 38 53 85 102 69 70 83 90 74 101 -6 8 -26 14 -44 14 -52 0 -67 8 -54 32 19 36 2 30 -30 -10 -25 -33 -38 -40 -75 -44 -25 -3 -57 -15 -72 -27 -15 -11 -37 -21 -50 -21 -13 0 -43 -10 -68 -21 -24 -12 -50 -20 -58 -17 -17 7 -71 160 -66 190 2 16 14 26 38 34 25 8 38 21 48 45 8 19 23 46 34 61 23 34 11 36 -49 8 -48 -22 -77 -28 -80 -17 -13 35 0 73 37 110 30 29 38 43 30 51 -9 8 -22 -1 -50 -33 l-37 -43 -11 31 c-14 39 -27 278 -18 315 4 17 19 31 44 43 33 14 34 17 15 20 -27 5 -27 6 -8 42 32 62 213 199 306 232 20 6 47 20 60 30 l24 17 -30 7 c-51 11 -75 24 -75 41 0 11 -5 14 -17 10 -9 -4 -46 -14 -82 -23 -78 -19 -136 -63 -166 -126 -11 -23 -28 -43 -37 -45 -14 -3 -16 3 -11 35 8 54 30 92 64 111 17 10 29 25 29 38 0 39 65 78 270 164 79 33 148 65 154 71 8 8 5 10 -11 5 -12 -4 -24 -2 -28 4 -4 6 -15 8 -26 5 -13 -5 -19 -2 -19 10 0 13 -6 15 -30 10 -19 -4 -30 -3 -30 4 0 12 -10 12 -85 1z m-305 -1264 c6 -8 18 -54 27 -103 8 -48 19 -96 24 -106 7 -13 5 -25 -10 -45 -29 -42 -120 -124 -130 -118 -5 3 -1 50 9 103 44 241 53 283 60 283 4 0 13 -7 20 -14z m1309 -35 c9 -6 10 -10 2 -16 -15 -8 -41 1 -41 15 0 12 20 13 39 1z m-63 -26 c14 -22 15 -40 6 -151 -5 -69 -13 -128 -17 -132 -12 -12 -35 31 -35 67 -1 20 -9 79 -20 131 -20 101 -18 110 27 110 13 0 29 -11 39 -25z m2643 6 c6 -11 26 -21 50 -25 33 -5 42 -11 47 -32 4 -14 5 -26 3 -28 -2 -2 -38 1 -79 5 -41 4 -105 8 -142 8 -38 1 -68 5 -68 10 0 20 119 79 162 80 10 1 22 -7 27 -18z m-2470 -38 c20 -21 71 -66 114 -101 42 -34 77 -67 77 -72 0 -12 -53 -40 -75 -40 -10 0 -31 10 -47 22 l-30 21 -57 -28 c-31 -15 -71 -29 -89 -31 l-32 -2 5 51 c16 138 46 217 81 217 10 0 33 -17 53 -37z m1596 -112 c23 -10 26 -14 15 -21 -8 -6 -33 -10 -55 -10 -30 0 -55 -10 -100 -40 -33 -22 -68 -40 -77 -40 -9 0 -19 -4 -22 -9 -4 -5 -26 -19 -51 -31 -44 -21 -75 -61 -75 -95 0 -8 -6 -15 -13 -15 -19 0 -37 21 -37 43 0 11 -11 22 -30 29 -17 5 -37 23 -45 38 -8 15 -28 42 -45 58 -16 17 -30 34 -30 39 0 9 185 57 255 67 57 8 280 -2 310 -13z m-4867 -214 c2 -18 -1 -27 -11 -27 -15 0 -27 20 -27 47 0 27 35 9 38 -20z m5043 6 c-16 -30 -321 -348 -336 -351 -19 -4 -19 1 5 47 10 21 68 82 127 136 59 54 127 117 149 141 43 45 73 60 55 27z m-880 -12 c21 -18 22 -21 9 -34 -8 -8 -35 -18 -59 -22 -39 -6 -43 -5 -38 10 4 9 7 20 7 25 0 13 30 40 45 40 7 0 23 -9 36 -19z m-4493 -37 c33 -21 60 -71 68 -123 8 -53 -9 -71 -68 -71 -30 0 -42 6 -59 29 l-22 30 -43 -41 c-24 -23 -46 -49 -50 -60 -3 -10 -23 -30 -45 -44 -34 -21 -38 -27 -29 -45 6 -11 44 -35 83 -53 83 -38 116 -68 98 -89 -6 -8 -10 -25 -9 -38 4 -32 -33 -49 -112 -49 -47 0 -74 5 -97 20 -36 22 -120 130 -129 166 -3 13 -17 30 -30 39 -69 45 -46 115 74 226 88 81 111 94 219 113 83 16 114 13 151 -10z m242 -13 c0 -6 -4 -13 -10 -16 -5 -3 -10 1 -10 9 0 9 5 16 10 16 6 0 10 -4 10 -9z m2510 2 c0 -3 -11 -26 -25 -50 -26 -44 -45 -53 -63 -30 -14 18 -3 75 17 80 26 7 71 8 71 0z m794 -38 c-14 -19 -35 -35 -45 -35 -26 0 -24 7 13 41 46 41 66 38 32 -6z m338 -30 c14 -32 9 -36 -49 -42 -35 -3 -44 -2 -33 6 12 8 12 13 2 23 -17 17 -15 26 6 31 43 11 63 7 74 -18z m-3517 5 c3 -5 1 -10 -4 -10 -6 0 -11 5 -11 10 0 6 2 10 4 10 3 0 8 -4 11 -10z m-977 -37 c6 -19 -28 -29 -39 -12 -5 8 -9 18 -9 22 0 13 43 3 48 -10z m5234 -13 c12 -21 25 -30 43 -30 15 0 25 -6 25 -14 0 -8 -8 -13 -17 -11 -136 26 -141 28 -136 42 5 12 48 42 63 43 3 0 13 -14 22 -30z m-5298 -12 c5 -9 7 -20 3 -25 -11 -10 -41 11 -45 31 -5 23 26 18 42 -6z m4399 -10 c-13 -12 -26 -18 -30 -14 -4 4 1 14 11 22 31 22 43 17 19 -8z m-4269 -34 c19 -19 21 -54 3 -54 -13 0 -46 32 -61 58 -11 18 39 15 58 -4z m973 -4 c17 -10 37 -28 43 -40 9 -17 7 -24 -17 -44 -21 -18 -32 -22 -45 -15 -10 5 -18 14 -18 19 0 19 -40 50 -64 50 -31 0 -56 28 -35 41 25 16 102 10 136 -11z m2593 -6 c0 -13 -6 -12 -47 2 -16 6 -16 7 2 14 25 9 45 2 45 -16z m90 7 c18 -35 13 -48 -20 -43 -37 5 -44 15 -30 42 14 25 36 26 50 1z m1790 -6 c10 -12 9 -15 -8 -15 -11 0 -25 7 -32 15 -10 12 -9 15 8 15 11 0 25 -7 32 -15z m-581 -4 c23 -15 2 -31 -40 -31 -40 0 -48 7 -27 28 14 14 47 15 67 3z m171 -16 c40 -21 38 -27 -7 -19 -45 8 -47 9 -38 23 8 14 10 14 45 -4z m445 -19 c43 -18 57 -45 49 -96 -4 -22 -8 -40 -10 -40 -2 0 -33 16 -68 36 -70 38 -107 44 -155 25 -16 -7 -37 -11 -47 -9 -15 3 -14 7 8 33 23 26 33 30 82 32 36 1 61 7 71 17 20 20 27 20 70 2z m-5580 -18 c28 -13 33 -28 9 -28 -23 0 -55 20 -49 31 8 11 9 11 40 -3z m5206 -4 c7 -8 25 -22 40 -30 26 -13 27 -17 18 -44 -14 -39 -39 -40 -39 -2 0 17 -10 38 -25 52 -14 13 -25 27 -25 32 0 13 17 9 31 -8z m-1641 -9 c17 -20 13 -23 -35 -25 -56 -3 -57 -2 -45 20 13 24 62 27 80 5z m-3396 -88 c29 -39 13 -43 -28 -7 -41 37 -52 73 -14 48 12 -8 31 -27 42 -41z m-213 -18 c144 -34 160 -45 196 -128 23 -55 39 -87 61 -126 26 -48 55 -115 51 -120 -13 -12 -91 24 -149 70 -36 29 -78 59 -95 66 -27 13 -30 19 -30 64 0 29 -5 53 -12 58 -7 4 -13 17 -13 27 0 11 -7 20 -15 20 -19 0 -72 -26 -77 -38 -1 -4 -18 -18 -36 -31 -50 -35 -69 -9 -87 122 l-7 47 43 0 c24 0 100 -14 170 -31z m1251 -20 c22 -30 36 -99 19 -99 -6 0 -11 11 -11 24 0 15 -7 26 -20 29 -21 5 -44 52 -34 68 8 14 25 6 46 -22z m-1493 -6 c12 -29 30 -160 24 -167 -6 -6 -103 86 -103 97 0 22 42 97 55 97 7 0 18 -12 24 -27z m5493 1 c14 -9 -4 -33 -34 -43 -17 -6 -50 -11 -72 -11 -44 0 -75 -19 -145 -91 -41 -42 -71 -59 -100 -59 -19 0 -21 6 -21 51 0 76 21 109 73 109 15 0 63 11 105 24 42 14 86 27 97 29 20 5 84 -1 97 -9z m-2585 -20 c-3 -3 -12 -4 -19 -1 -8 3 -5 6 6 6 11 1 17 -2 13 -5z m23 -80 c6 -14 10 -40 10 -57 0 -31 -1 -32 -50 -34 -61 -2 -65 13 -19 75 36 49 46 52 59 16z m-2332 -109 c-1 -12 2 -28 8 -36 14 -18 38 -108 31 -115 -10 -10 -25 5 -32 33 -3 15 -28 64 -55 108 -26 44 -51 91 -55 104 -6 21 1 18 49 -24 42 -35 56 -54 54 -70z m4488 41 c-10 -65 -16 -69 -65 -45 -54 26 -51 44 14 87 56 36 62 32 51 -42z m867 -83 c-7 -2 -21 -2 -30 0 -10 3 -4 5 12 5 17 0 24 -2 18 -5z m-3017 -50 c-7 -17 -8 -17 -17 0 -12 21 -2 44 13 29 6 -6 8 -19 4 -29z m1429 -13 c-10 -11 -22 -20 -27 -20 -5 0 -4 9 2 20 6 11 18 20 27 20 14 0 14 -2 -2 -20z m1313 1 c20 -13 -86 -216 -113 -216 -15 0 -21 8 -23 33 -2 19 -9 32 -17 32 -7 0 -26 11 -42 24 -15 12 -39 26 -53 29 -54 13 -100 32 -97 42 8 24 55 35 144 34 51 -1 98 3 105 8 28 22 73 29 96 14z m-3657 -29 c-7 -14 -6 -24 5 -41 20 -28 10 -131 -13 -131 -7 0 -36 -20 -62 -45 -42 -39 -50 -43 -61 -30 -7 8 -28 15 -46 15 -50 0 -43 20 31 91 36 35 67 73 70 89 3 16 22 39 42 53 41 29 50 29 34 -1z m-2103 -35 c4 -20 -23 -67 -38 -67 -11 0 -14 73 -3 84 12 12 38 1 41 -17z m6600 6 c26 -22 29 -47 18 -140 -9 -79 -20 -87 -31 -21 -12 66 -33 118 -56 137 -13 10 -19 23 -15 29 11 18 61 14 84 -5z m-2818 -3 c0 -5 -2 -10 -4 -10 -3 0 -8 5 -11 10 -3 6 -1 10 4 10 6 0 11 -4 11 -10z m1476 -24 c19 -19 34 -39 34 -45 0 -14 -27 -14 -36 0 -3 6 -17 8 -30 5 -19 -5 -24 -2 -24 12 0 10 -5 23 -11 29 -6 6 -8 16 -5 22 13 20 37 12 72 -23z m-1488 -43 c2 -7 -10 -27 -27 -44 -17 -17 -37 -29 -44 -27 -6 3 -13 24 -15 47 l-3 42 42 -3 c23 -2 44 -9 47 -15z m-3838 -43 c7 -13 9 -46 4 -91 -8 -79 -23 -97 -91 -105 -36 -5 -39 -3 -55 34 -10 21 -18 46 -18 56 0 9 -10 31 -22 48 -16 22 -19 32 -11 35 7 3 23 13 35 23 17 14 39 19 85 20 53 0 64 -3 73 -20z m890 1 c0 -21 -13 -41 -26 -41 -14 0 -19 31 -7 43 10 10 33 8 33 -2z m480 -6 c14 -8 52 -14 88 -15 54 0 62 -2 62 -19 0 -26 -86 -98 -125 -105 -22 -4 -48 0 -80 14 -44 19 -52 19 -84 7 -20 -8 -57 -17 -83 -21 -40 -6 -47 -5 -42 8 3 8 22 21 43 29 20 9 43 23 50 31 8 10 21 14 32 11 23 -8 63 18 77 50 13 28 26 30 62 10z m-403 -20 c26 -18 45 -78 36 -114 -7 -30 -41 -71 -59 -71 -6 0 -15 15 -18 34 -7 38 3 166 13 166 4 0 16 -7 28 -15z m-157 -67 c11 -24 20 -52 20 -63 0 -19 -4 -20 -67 -14 -38 3 -76 2 -86 -3 -23 -12 -34 16 -16 39 15 18 109 82 122 82 4 1 17 -18 27 -41z m2585 2 c17 -19 17 -20 -1 -20 -27 0 -48 16 -40 29 10 16 20 14 41 -9z m1863 -2 c34 -28 -8 -39 -46 -12 -12 8 -20 20 -16 25 6 11 41 3 62 -13z m1204 -38 c45 -13 55 -27 36 -47 -20 -20 -59 -8 -94 28 l-28 29 25 0 c13 0 41 -5 61 -10z m-6669 -13 c10 -7 24 -30 32 -52 12 -36 12 -40 -3 -44 -9 -1 -24 -9 -32 -16 -8 -8 -33 -15 -55 -17 -38 -3 -40 -4 -37 -34 3 -30 1 -31 -70 -52 -40 -12 -85 -22 -100 -22 -25 0 -27 3 -26 36 1 30 8 40 44 65 48 33 70 58 35 39 -41 -21 -44 -4 -5 27 95 75 176 101 217 70z m1667 -17 c0 -5 -4 -10 -10 -10 -5 0 -10 5 -10 10 0 6 5 10 10 10 6 0 10 -4 10 -10z m-990 -9 c0 -6 -4 -13 -10 -16 -5 -3 -10 1 -10 9 0 9 5 16 10 16 6 0 10 -4 10 -9z m5853 -17 c3 -4 -3 -24 -14 -46 -11 -21 -18 -42 -15 -47 3 -4 41 -6 86 -3 68 4 80 2 80 -11 0 -15 -53 -37 -89 -37 -8 0 -28 -17 -46 -37 l-32 -37 -39 17 c-21 10 -47 24 -58 32 -17 13 -17 15 -2 37 9 12 16 33 16 46 0 12 7 38 14 57 13 31 19 35 54 35 21 0 41 -3 45 -6z m-5903 -39 c7 -8 10 -22 6 -30 -7 -19 -36 -20 -36 -1 0 8 -3 21 -6 30 -8 21 19 21 36 1z m-75 -52 c29 -70 15 -100 -36 -73 -21 12 -24 42 -8 88 13 38 24 34 44 -15z m6869 11 c3 -9 6 -18 6 -20 0 -9 -29 -3 -55 10 l-28 14 29 5 c16 2 32 5 35 6 4 0 10 -6 13 -15z m-5101 -36 c2 -7 -2 -28 -9 -46 -7 -18 -11 -46 -7 -62 3 -18 1 -30 -5 -30 -16 0 -52 82 -52 118 0 30 2 32 34 32 19 0 36 -6 39 -12z m-2332 -74 c7 -9 43 -31 81 -50 66 -33 83 -50 89 -89 3 -17 -1 -19 -27 -17 -43 4 -194 -23 -289 -53 -44 -13 -83 -25 -87 -25 -18 0 -5 69 21 115 34 59 63 88 117 115 48 24 77 25 95 4z m2234 -20 c7 -42 1 -53 -23 -38 -29 19 -28 74 2 74 8 0 17 -15 21 -36z m235 26 c0 -5 -4 -10 -10 -10 -5 0 -10 5 -10 10 0 6 5 10 10 10 6 0 10 -4 10 -10z m2465 0 c4 -6 -7 -10 -24 -10 -17 0 -31 5 -31 10 0 6 11 10 24 10 14 0 28 -4 31 -10z m613 -9 c3 -8 -1 -12 -9 -9 -7 2 -15 10 -17 17 -3 8 1 12 9 9 7 -2 15 -10 17 -17z m2260 -56 c34 -24 68 -55 77 -68 8 -13 26 -30 40 -37 14 -7 25 -19 25 -26 0 -7 18 -32 41 -56 51 -55 83 -109 103 -175 l15 -53 -24 0 c-25 0 -85 60 -85 85 0 9 -12 25 -26 38 -39 34 -166 97 -195 97 -15 0 -52 11 -83 25 -60 26 -86 31 -86 16 0 -5 -10 -12 -22 -16 -13 -3 -33 -11 -46 -17 -18 -10 -26 -8 -45 10 -13 12 -32 22 -42 22 -10 0 -26 7 -36 16 -9 8 -41 22 -69 29 -29 8 -57 18 -62 23 -5 5 24 18 72 32 80 23 82 23 100 4 11 -10 25 -37 33 -58 7 -22 18 -41 24 -43 6 -2 24 8 41 22 16 14 39 25 51 25 14 0 23 8 27 25 4 15 13 25 24 25 11 0 20 10 24 25 4 14 13 25 21 25 9 0 15 10 15 25 0 36 19 32 88 -20z m-1202 24 c8 -14 -11 -33 -25 -25 -11 7 -4 36 9 36 5 0 12 -5 16 -11z m-5857 -106 c1 -7 -8 -13 -19 -13 -15 0 -20 7 -20 29 0 16 -2 44 -5 62 -5 31 -3 30 19 -16 14 -27 25 -56 25 -62z m60 76 c17 -17 34 -41 37 -54 6 -24 -10 -65 -25 -65 -5 0 -20 26 -35 59 -41 93 -33 116 23 60z m4638 25 c-3 -3 -12 -4 -19 -1 -8 3 -5 6 6 6 11 1 17 -2 13 -5z m940 -19 c34 -24 18 -45 -33 -45 l-43 0 10 30 c12 33 33 38 66 15z m-5515 -12 c30 -35 31 -65 2 -45 -11 7 -34 45 -34 56 0 12 17 5 32 -11z m-553 -58 c82 -26 141 -68 141 -100 0 -15 -7 -17 -47 -11 -36 4 -55 14 -73 35 -14 16 -40 34 -59 40 -54 17 -94 61 -57 61 8 0 51 -11 95 -25z m460 -67 c5 -13 7 -25 5 -27 -7 -8 -44 31 -38 40 9 16 24 10 33 -13z m5781 -18 c12 -8 9 -10 -12 -10 -15 0 -30 5 -33 10 -8 13 25 13 45 0z m-6001 -9 c9 -6 10 -10 2 -16 -15 -8 -41 1 -41 15 0 12 20 13 39 1z m6086 -78 c70 -22 70 -22 40 -53 -43 -45 -82 -47 -159 -6 -37 20 -84 41 -106 47 -22 7 -40 16 -40 20 0 21 192 15 265 -8z m-6745 7 c73 -17 120 -41 126 -67 5 -18 13 -23 39 -23 47 0 196 -56 218 -81 30 -37 22 -52 -24 -46 -34 4 -45 1 -73 -24 -19 -16 -39 -29 -45 -29 -23 0 -86 39 -116 70 -16 18 -46 40 -65 50 -19 10 -66 50 -105 89 l-69 71 34 0 c19 0 55 -5 80 -10z m2445 -8 c0 -18 -20 -15 -23 4 -3 10 1 15 10 12 7 -3 13 -10 13 -16z m-1641 -28 c9 -22 8 -24 -9 -24 -8 0 -15 9 -15 20 0 24 15 27 24 4z m6107 -56 c27 -13 49 -27 49 -31 0 -5 -4 -6 -9 -3 -5 4 -45 7 -88 7 -43 1 -82 4 -87 7 -10 6 51 41 73 42 7 0 35 -10 62 -22z m-6344 -18 c-10 -49 -51 -125 -69 -128 -16 -3 -18 5 -18 61 0 89 4 97 52 97 40 0 40 -1 35 -30z m1131 16 c30 -16 68 -54 60 -61 -2 -3 -31 0 -63 7 -43 8 -62 8 -76 0 -21 -13 -99 -28 -99 -18 0 3 23 17 50 31 28 14 53 32 57 40 7 19 36 19 71 1z m1507 -6 c3 -5 -3 -10 -14 -10 -12 0 -21 5 -21 10 0 6 6 10 14 10 8 0 18 -4 21 -10z m-2469 -35 c10 -25 -7 -40 -23 -20 -7 11 -13 22 -13 27 0 14 30 9 36 -7z m-73 -12 c8 -10 17 -31 19 -48 3 -29 1 -30 -41 -35 -39 -4 -46 -9 -54 -35 -18 -54 -47 -75 -47 -32 0 47 72 167 100 167 4 0 14 -8 23 -17z m6268 -38 c92 -31 155 -74 174 -118 7 -18 12 -33 11 -34 -1 -2 -20 6 -41 17 -24 12 -59 20 -91 20 -33 0 -54 5 -57 13 -3 9 -7 9 -21 -2 -14 -12 -19 -11 -35 3 -13 12 -29 15 -57 11 -36 -5 -41 -2 -71 36 -18 23 -33 48 -33 55 0 41 98 40 221 -1z m-4241 2 c0 -14 -20 -37 -32 -37 -10 0 -11 34 -1 43 11 12 33 8 33 -6z m449 0 c13 -16 -4 -37 -31 -37 -21 0 -24 20 -6 38 15 15 23 15 37 -1z m81 -47 c0 -12 -33 -30 -56 -30 -10 0 -29 -11 -43 -24 -15 -14 -39 -28 -55 -32 -26 -6 -27 -5 -17 15 15 27 50 50 103 66 53 17 68 18 68 5z m-3132 -64 c15 -8 35 -23 45 -33 16 -19 16 -20 -34 -31 -70 -17 -79 -15 -79 11 0 21 25 67 36 67 3 0 17 -6 32 -14z m5060 -18 c8 -8 9 -15 1 -25 -15 -18 -39 -17 -39 2 0 8 -7 15 -15 15 -8 0 -15 5 -15 10 0 14 53 13 68 -2z m-828 -44 c0 -8 -4 -14 -9 -14 -11 0 -22 26 -14 34 9 9 23 -3 23 -20z m2915 16 c3 -5 1 -10 -4 -10 -6 0 -11 5 -11 10 0 6 2 10 4 10 3 0 8 -4 11 -10z m-2864 -23 c-1 -12 -15 -9 -19 4 -3 6 1 10 8 8 6 -3 11 -8 11 -12z m2979 3 c0 -5 -9 -10 -20 -10 -11 0 -20 5 -20 10 0 6 9 10 20 10 11 0 20 -4 20 -10z m687 -16 c-3 -3 -12 -4 -19 -1 -8 3 -5 6 6 6 11 1 17 -2 13 -5z m86 -8 c16 -13 15 -17 -18 -66 -19 -28 -35 -56 -35 -60 0 -5 -12 -15 -27 -22 -16 -7 -36 -30 -46 -51 -9 -20 -23 -37 -30 -37 -12 1 -58 85 -57 106 0 14 64 64 82 64 7 0 33 18 58 40 51 45 49 44 73 26z m-8131 -11 c0 -5 -5 -11 -11 -13 -6 -2 -11 4 -11 13 0 9 5 15 11 13 6 -2 11 -8 11 -13z m74 -39 c-9 -14 -26 -35 -38 -46 -19 -17 -23 -31 -22 -79 0 -31 8 -72 17 -89 9 -20 12 -34 6 -38 -6 -3 -11 -4 -13 -3 -34 50 -76 137 -76 158 0 40 53 104 98 117 45 14 49 11 28 -20z m7350 3 c0 -14 10 -39 22 -56 12 -17 22 -33 22 -36 0 -3 -21 1 -47 7 l-48 12 -1 45 c0 24 5 47 10 51 20 15 41 3 42 -23z m-92 4 c-3 -10 -8 -24 -10 -31 -3 -9 -12 -7 -34 9 -40 30 -38 39 10 39 33 0 38 -3 34 -17z m-4914 -39 c0 -8 -16 -30 -35 -50 -42 -41 -46 -25 -8 33 26 41 43 47 43 17z m-1901 -96 c18 -27 -2 -47 -55 -55 -21 -3 -50 -16 -64 -28 -25 -23 -97 -51 -106 -42 -7 7 62 144 92 184 l25 32 47 -36 c26 -19 53 -44 61 -55z m6355 73 c10 -4 28 -31 40 -61 16 -41 28 -56 46 -60 31 -7 38 -44 15 -70 -16 -17 -15 -19 7 -34 12 -8 39 -22 59 -30 24 -10 47 -32 69 -66 18 -27 45 -59 61 -71 16 -11 34 -30 40 -41 11 -20 14 -116 5 -126 -3 -2 -25 4 -51 13 -41 16 -47 16 -63 2 -9 -9 -29 -20 -44 -26 -21 -8 -28 -18 -33 -54 -9 -59 -13 -63 -67 -71 -44 -7 -47 -5 -71 26 -39 51 -90 152 -78 156 5 2 20 -2 32 -8 31 -17 39 -1 28 49 -7 30 -7 46 0 51 13 8 -2 109 -31 203 -23 77 -19 120 14 147 21 17 21 18 5 43 -25 39 -22 44 17 28z m-5297 -33 c26 -29 53 -82 53 -104 0 -14 -7 -15 -42 -10 -49 8 -74 27 -62 47 4 8 7 30 5 51 -3 45 14 50 46 16z m6063 -43 c0 -8 -4 -15 -10 -15 -5 0 -10 7 -10 15 0 8 5 15 10 15 6 0 10 -7 10 -15z m-5905 -57 c5 -17 3 -28 -3 -28 -17 0 -42 42 -42 69 0 25 0 25 19 6 11 -11 23 -32 26 -47z m6020 -17 c47 -21 100 -72 124 -121 l18 -35 -61 -80 c-73 -94 -101 -110 -145 -77 -18 13 -31 17 -33 10 -6 -18 -42 0 -109 52 -34 28 -67 50 -73 50 -12 0 -76 74 -76 88 0 14 77 63 136 87 27 12 61 29 75 39 28 20 79 16 144 -13z m-5845 -36 c-28 -29 -37 -31 -62 -9 -16 16 -18 16 -24 0 -7 -18 -29 -21 -39 -6 -16 25 5 35 76 38 l73 3 -24 -26z m5455 5 c3 -5 -1 -10 -9 -10 -9 0 -16 5 -16 10 0 6 4 10 9 10 6 0 13 -4 16 -10z m942 -37 c12 -77 9 -235 -5 -260 -17 -30 -38 -29 -58 2 -11 16 -39 32 -90 48 l-74 24 -13 -21 c-14 -20 -15 -20 -36 14 -11 19 -21 47 -21 61 0 38 32 43 121 19 93 -24 89 -25 89 4 0 32 -31 68 -71 81 -18 6 -34 16 -36 22 -3 9 72 32 124 36 12 1 25 5 29 10 19 18 33 4 41 -40z m-6639 -11 c6 -9 12 -31 12 -49 0 -27 -5 -35 -26 -43 -42 -16 -50 -12 -83 38 -46 71 -43 80 27 74 36 -2 62 -10 70 -20z m-1238 -16 c6 -19 26 -50 45 -69 19 -20 35 -38 35 -41 0 -3 -31 -25 -69 -50 -79 -51 -114 -92 -90 -107 8 -5 34 -12 59 -15 39 -6 50 -13 83 -55 44 -58 34 -70 -36 -46 -35 12 -55 13 -96 4 -66 -13 -101 1 -101 38 0 15 -11 36 -25 49 -22 21 -25 31 -25 93 0 114 33 182 104 214 23 10 55 19 73 19 27 0 33 -5 43 -34z m-357 4 c3 -11 1 -20 -4 -20 -5 0 -9 2 -9 4 0 2 -3 11 -6 20 -3 9 -2 16 4 16 5 0 12 -9 15 -20z m4915 -36 c26 -17 29 -44 5 -44 -23 0 -83 42 -83 58 0 15 43 7 78 -14z m-845 -20 c-6 -17 -29 -19 -39 -3 -8 14 14 29 32 22 7 -2 10 -11 7 -19z m-113 -28 c0 -29 -22 -49 -44 -40 -21 8 -21 40 2 53 28 17 42 13 42 -13z m-2100 -2 c2 -3 -12 -20 -33 -39 -20 -19 -37 -41 -37 -49 0 -17 -18 -21 -36 -8 -13 8 -34 67 -34 95 0 18 5 19 68 12 37 -4 69 -9 72 -11z m1301 -16 c17 -32 28 -38 76 -38 54 0 73 -8 73 -31 0 -14 -7 -19 -25 -19 -19 0 -28 -7 -35 -27 -28 -78 -34 -81 -128 -90 -58 -6 -64 -4 -69 15 -3 12 -15 24 -27 28 -30 9 -36 22 -36 80 l0 51 53 25 c68 33 103 35 118 6z m-3053 -18 c7 0 12 -13 12 -30 0 -44 -29 -36 -56 15 -13 26 -13 27 8 21 13 -3 29 -6 36 -6z m4986 -62 c28 -36 26 -48 -8 -48 -32 0 -48 22 -40 54 8 34 17 33 48 -6z m2779 12 c3 -13 0 -20 -8 -20 -17 0 -28 17 -20 30 10 16 22 12 28 -10z m-493 -20 c13 -8 13 -10 -2 -10 -9 0 -20 5 -23 10 -8 13 5 13 25 0z m-1405 -61 c11 -17 -1 -21 -15 -4 -8 9 -8 15 -2 15 6 0 14 -5 17 -11z m730 1 c3 -5 2 -10 -4 -10 -5 0 -13 5 -16 10 -3 6 -2 10 4 10 5 0 13 -4 16 -10z m-182 -37 c55 -53 60 -66 37 -96 -11 -14 -20 -27 -20 -30 0 -2 16 -21 36 -42 30 -32 35 -43 30 -68 -5 -26 -1 -35 29 -63 28 -25 35 -39 35 -68 0 -45 -11 -40 -46 20 -28 47 -50 64 -83 64 -11 0 -25 9 -31 20 -6 10 -29 24 -51 30 -22 6 -58 27 -80 47 -36 33 -43 35 -89 31 -34 -3 -53 -1 -58 7 -4 7 -17 17 -30 24 l-22 12 40 47 c52 62 105 79 174 56 55 -19 76 -13 76 21 0 34 9 32 53 -12z m61 21 c9 -8 16 -20 16 -25 0 -17 -27 -9 -50 16 -23 25 -23 25 -2 25 11 0 28 -7 36 -16z m-4409 -44 c17 -6 33 -7 44 0 20 10 110 3 132 -11 11 -6 9 -16 -8 -46 -11 -21 -30 -72 -43 -113 -22 -75 -35 -100 -51 -100 -5 0 -9 11 -9 24 0 46 -19 75 -72 109 -76 48 -86 62 -62 88 11 12 18 30 16 40 -4 21 13 24 53 9z m-104 -27 c-8 -15 -10 -15 -11 -2 0 17 10 32 18 25 2 -3 -1 -13 -7 -23z m869 6 c0 -6 8 -9 19 -6 21 5 51 -9 51 -24 0 -20 -62 -5 -78 19 -9 14 -10 22 -3 22 6 0 11 -5 11 -11z m3215 -20 c11 -17 -1 -21 -15 -4 -8 9 -8 15 -2 15 6 0 14 -5 17 -11z m-3470 -49 c10 -30 -27 -150 -47 -150 -13 0 -9 98 6 135 17 39 32 45 41 15z m-1065 -25 c7 -9 10 -18 7 -21 -7 -8 -47 14 -47 26 0 15 26 12 40 -5z m6314 -7 c9 -12 14 -24 11 -26 -7 -7 -55 27 -55 38 0 18 29 10 44 -12z m236 -13 c-18 -79 -80 -142 -117 -119 -10 6 -18 16 -18 21 0 17 113 133 129 133 11 0 12 -8 6 -35z m-3882 -3 c2 -7 -5 -12 -17 -12 -14 0 -19 5 -14 15 6 17 25 15 31 -3z m1166 -35 c6 -9 7 -19 3 -23 -9 -9 -37 15 -37 33 0 18 20 12 34 -10z m637 -18 c8 -16 6 -19 -9 -19 -23 0 -46 25 -38 39 9 14 34 3 47 -20z m-3179 -49 c-4 -45 -35 -110 -53 -110 -12 0 -49 60 -49 80 0 23 62 81 85 78 17 -3 20 -9 17 -48z m3322 35 c35 -17 59 -51 74 -107 12 -43 2 -49 -35 -23 -35 25 -94 111 -87 129 8 20 8 20 48 1z m-714 -75 c0 -5 -2 -10 -4 -10 -3 0 -8 5 -11 10 -3 6 -1 10 4 10 6 0 11 -4 11 -10z m-270 -22 c0 -16 -12 -30 -41 -46 -22 -13 -42 -22 -44 -20 -2 2 5 22 15 46 15 33 24 42 45 42 19 0 25 -5 25 -22z m-5082 -27 c-15 -5 -21 7 -13 26 7 17 8 17 15 -2 4 -11 3 -22 -2 -24z m122 30 c0 -5 -7 -25 -15 -44 -8 -20 -15 -55 -15 -77 0 -23 -4 -39 -9 -36 -8 6 -12 21 -27 124 l-7 42 37 0 c20 0 36 -4 36 -9z m396 -29 c13 -9 33 -37 45 -61 11 -25 31 -59 43 -75 22 -30 76 -184 76 -217 0 -19 -37 -54 -67 -64 -22 -6 -23 -4 -23 52 0 60 -11 85 -63 147 -20 24 -38 32 -108 46 -73 15 -88 16 -118 4 -18 -8 -45 -14 -59 -14 -14 0 -34 -8 -44 -17 -13 -12 -22 -13 -29 -6 -25 25 72 142 153 184 97 50 147 55 194 21z m4865 -52 c16 -19 34 -50 40 -69 10 -29 9 -36 -5 -46 -9 -7 -16 -17 -16 -23 0 -19 -17 -22 -73 -12 -38 7 -69 7 -102 0 -26 -6 -49 -9 -51 -7 -2 1 8 33 21 70 14 36 22 73 19 81 -3 8 2 17 14 20 11 4 25 20 32 36 l12 30 40 -23 c23 -12 53 -38 69 -57z m-4696 58 c14 -6 25 -17 25 -25 0 -25 -22 -103 -29 -103 -4 0 -15 26 -25 58 -10 31 -21 63 -23 70 -6 15 18 16 52 0z m1585 -25 c0 -14 -27 -30 -36 -20 -3 2 -2 17 2 31 5 21 9 24 20 15 8 -6 14 -18 14 -26z m5356 -4 c38 -36 31 -62 -26 -99 -27 -17 -53 -29 -58 -26 -12 7 -49 84 -57 119 -6 21 -3 26 17 30 44 10 100 -1 124 -24z m-562 0 c21 -10 23 -15 15 -30 -10 -19 -36 -24 -76 -13 -30 8 -29 16 5 36 33 21 26 20 56 7z m-1610 -25 c7 -17 -6 -18 -22 -2 -7 7 -12 15 -12 20 0 12 28 -2 34 -18z m-2748 -16 c8 -26 0 -32 -29 -22 -20 8 -23 13 -16 31 10 27 35 21 45 -9z m-1836 12 c0 -5 -4 -10 -10 -10 -5 0 -10 5 -10 10 0 6 5 10 10 10 6 0 10 -4 10 -10z m4186 -92 c-15 -54 -40 -84 -84 -108 -31 -15 -33 -11 -21 33 10 36 104 145 116 134 2 -3 -2 -30 -11 -59z m-2464 25 c18 -16 25 -43 11 -43 -12 0 -43 33 -43 47 0 17 10 17 32 -4z m4398 -3 c0 -5 -4 -10 -9 -10 -6 0 -13 5 -16 10 -3 6 1 10 9 10 9 0 16 -4 16 -10z m-6213 -55 c-1 -20 -7 -35 -14 -35 -14 0 -16 13 -7 48 10 35 24 26 21 -13z m4841 -13 c13 -21 13 -22 -9 -22 -13 0 -34 3 -46 6 -19 5 -20 9 -11 35 9 27 12 29 31 16 11 -7 27 -23 35 -35z m-951 -17 c-4 -8 -11 -15 -17 -15 -7 0 -7 6 0 21 13 23 26 19 17 -6z m1755 -38 l36 -62 -26 -27 c-21 -22 -45 -31 -111 -43 -46 -9 -87 -13 -92 -8 -12 13 -33 128 -26 146 4 10 17 17 29 17 13 0 50 9 83 20 33 10 62 19 65 19 3 0 22 -28 42 -62z m1375 8 c24 -25 48 -43 54 -40 5 4 12 24 15 46 7 39 7 39 43 33 20 -4 49 -16 64 -28 23 -17 31 -18 47 -8 17 11 20 9 26 -16 3 -15 8 -33 10 -41 2 -7 -21 -40 -51 -73 -31 -33 -74 -84 -96 -113 -61 -82 -108 -93 -196 -49 -49 24 -123 93 -123 114 0 18 25 10 95 -31 59 -34 129 -69 140 -69 7 0 -23 98 -44 145 -30 69 -64 109 -107 130 -35 17 -36 19 -19 31 10 8 36 14 58 14 33 0 46 -7 84 -45z m-3041 18 c7 -10 14 -24 14 -30 0 -17 -36 -53 -54 -53 -31 0 -29 85 2 93 10 3 19 5 21 6 2 0 10 -7 17 -16z m1892 -6 c7 -33 -7 -63 -33 -75 -36 -16 -45 -15 -45 6 0 10 -5 23 -11 29 -9 9 -5 18 15 38 30 30 69 31 74 2z m-3858 -34 c0 -13 -6 -26 -13 -29 -10 -3 -12 -21 -9 -63 l4 -58 -58 -37 c-90 -56 -89 -58 -62 102 10 60 12 64 34 59 17 -3 24 0 24 12 0 9 6 23 13 32 28 36 67 26 67 -18z m862 30 c10 -9 18 -24 18 -33 0 -22 -26 -44 -43 -37 -20 7 -31 68 -15 79 18 11 19 10 40 -9z m-3522 -44 c0 -11 -4 -17 -10 -14 -5 3 -10 15 -10 26 0 11 5 17 10 14 6 -3 10 -15 10 -26z m4536 -26 c15 -24 24 -46 21 -49 -3 -3 -22 -1 -42 6 -24 8 -35 17 -31 26 3 7 -2 17 -11 22 -12 7 -13 13 -4 30 16 29 36 19 67 -35z m-2060 -15 c-9 -73 -29 -126 -51 -134 -10 -4 -28 4 -46 22 -27 25 -30 34 -26 67 7 49 13 55 32 31 14 -17 14 -16 9 23 l-6 42 38 4 c22 2 43 4 48 5 5 1 5 -25 2 -60z m2646 17 c14 -4 37 -18 50 -32 13 -15 17 -23 8 -20 -58 22 -92 29 -115 23 l-28 -7 22 -23 c24 -26 28 -66 6 -66 -8 0 -15 5 -15 10 0 6 -11 16 -25 22 -46 21 -42 80 9 120 20 16 22 16 41 -2 11 -10 32 -21 47 -25z m868 19 c10 -26 14 -84 5 -84 -2 0 -20 8 -40 17 -30 14 -40 15 -56 5 -15 -10 -29 -10 -60 -2 -47 13 -69 8 -69 -16 0 -13 -6 -15 -27 -9 -16 4 -34 11 -40 17 -16 13 -17 58 -2 58 6 0 25 7 42 15 18 8 66 16 107 18 41 2 87 4 103 5 21 2 30 -4 37 -24z m-5875 -49 l30 -26 -28 -24 c-40 -35 -77 -43 -94 -20 -9 13 -10 22 -3 29 5 5 10 32 10 59 l0 48 28 -20 c15 -12 41 -32 57 -46z m4775 45 c-11 -21 -22 -25 -33 -13 -9 9 12 33 30 33 11 0 11 -4 3 -20z m666 -67 c-3 -4 -38 -1 -77 6 -38 7 -69 15 -66 17 2 2 32 10 68 17 64 13 64 13 73 -10 4 -14 5 -27 2 -30z m2484 0 c11 -23 24 -33 48 -38 17 -3 32 -11 32 -17 0 -6 16 -26 36 -45 20 -19 35 -36 32 -38 -7 -8 -358 19 -358 27 0 27 151 149 180 145 8 -1 22 -16 30 -34z m-4436 21 c17 -6 22 -24 8 -24 -5 0 -17 7 -28 15 -19 15 -8 20 20 9z m3681 -23 c50 -23 91 -59 100 -88 3 -13 12 -23 18 -23 6 0 33 -21 60 -47 36 -35 47 -42 43 -26 -10 33 27 19 79 -31 23 -22 57 -54 74 -69 33 -30 37 -47 21 -76 -10 -21 -51 -206 -70 -318 -6 -40 -16 -73 -20 -73 -16 0 -49 51 -65 100 -9 27 -36 71 -59 97 -24 26 -53 68 -66 93 -12 24 -37 66 -56 92 -18 27 -36 59 -39 71 -3 12 -13 39 -22 59 -12 28 -13 41 -4 51 9 11 1 23 -39 56 -48 41 -70 71 -84 118 -6 17 -2 22 16 26 47 9 74 6 113 -12z m-3485 -31 c23 -45 14 -51 -27 -16 -24 20 -25 26 -14 40 7 9 15 16 17 16 2 0 13 -18 24 -40z m2690 30 c0 -5 -5 -10 -11 -10 -5 0 -7 5 -4 10 3 6 8 10 11 10 2 0 4 -4 4 -10z m-7326 -15 c83 -35 214 -155 235 -216 9 -27 8 -29 -27 -39 -54 -15 -100 -12 -110 5 -7 14 -18 14 -82 4 -45 -7 -110 -9 -165 -4 -138 10 -135 8 -135 69 0 63 13 81 67 96 23 6 51 22 61 35 11 14 28 25 37 25 9 0 28 9 42 20 31 24 31 24 77 5z m6406 -10 c10 -12 10 -15 -4 -15 -9 0 -16 7 -16 15 0 8 2 15 4 15 2 0 9 -7 16 -15z m-6217 -20 c15 -13 27 -33 27 -43 0 -11 12 -24 27 -31 15 -7 33 -21 40 -30 7 -10 30 -21 52 -25 58 -9 59 -24 5 -48 -53 -23 -77 -17 -82 21 -2 11 -11 25 -20 30 -10 5 -37 37 -61 70 -25 34 -48 61 -53 61 -4 0 -8 5 -8 10 0 19 45 9 73 -15z m4247 9 c0 -2 -7 -4 -15 -4 -8 0 -15 4 -15 10 0 5 7 7 15 4 8 -4 15 -8 15 -10z m2815 -8 c19 -8 35 -21 35 -28 0 -17 -86 -217 -101 -235 -22 -25 -37 -13 -49 39 -9 36 -23 62 -46 84 -19 17 -34 36 -34 43 0 6 -6 11 -13 11 -8 0 -24 11 -36 24 l-22 24 43 16 c106 38 168 45 223 22z m-1290 -6 c-3 -5 -11 -10 -16 -10 -6 0 -7 5 -4 10 3 6 11 10 16 10 6 0 7 -4 4 -10z m-4860 -31 c11 -17 -1 -22 -24 -9 -12 6 -21 17 -21 26 0 11 4 12 19 4 11 -5 23 -15 26 -21z m3420 7 c18 -13 17 -13 -8 -13 -16 0 -27 5 -27 13 0 8 4 14 8 14 5 0 17 -6 27 -14z m920 4 c3 -5 1 -10 -4 -10 -6 0 -11 5 -11 10 0 6 2 10 4 10 3 0 8 -4 11 -10z m-2674 -27 c6 -16 8 -52 4 -84 -7 -62 -21 -72 -75 -59 -34 8 -39 58 -11 104 12 18 21 41 21 50 0 10 9 16 25 16 19 0 28 -8 36 -27z m3510 -29 c23 -19 56 -43 73 -52 l31 -17 -51 -3 c-57 -3 -147 25 -182 58 -29 27 -28 38 6 43 66 10 81 7 123 -29z m-3055 -46 c23 -44 18 -105 -11 -133 -37 -38 -48 -32 -42 23 3 29 0 60 -9 81 -38 92 16 118 62 29z m664 53 c0 -14 -18 -23 -30 -16 -6 4 -8 11 -5 16 8 12 35 12 35 0z m2003 -13 c24 -12 21 -25 -13 -59 -22 -22 -37 -29 -57 -27 -26 3 -28 6 -31 56 l-3 54 43 -7 c24 -4 51 -11 61 -17z m-5202 -64 c11 -14 10 -15 -11 -12 -13 1 -25 9 -28 16 -5 17 23 15 39 -4z m-93 -16 c19 -19 14 -30 -8 -18 -11 6 -20 15 -20 20 0 14 14 12 28 -2z m5830 -16 c3 -9 -2 -13 -14 -10 -9 1 -19 9 -22 16 -3 9 2 13 14 10 9 -1 19 -9 22 -16z m2120 -36 c4 -21 -7 -20 -37 3 -31 24 -20 49 12 28 12 -8 23 -22 25 -31z m-708 20 c0 -8 24 -27 53 -44 28 -16 89 -68 135 -116 46 -48 87 -84 92 -81 6 4 10 24 10 46 0 81 39 34 144 -173 68 -135 79 -165 83 -222 7 -76 -3 -84 -35 -27 -25 44 -84 83 -170 111 -79 26 -130 48 -136 59 -8 13 -103 44 -119 38 -6 -2 13 -20 43 -39 61 -39 84 -62 78 -77 -1 -6 -37 -35 -78 -66 -63 -47 -80 -55 -110 -53 -32 3 -35 6 -37 38 -9 191 -16 231 -45 270 -15 22 -28 44 -28 50 0 13 -79 100 -91 100 -12 0 -1 -25 49 -112 49 -85 53 -119 8 -72 -40 41 -76 124 -83 187 -5 50 -3 55 22 75 15 12 50 29 78 37 58 17 77 31 77 55 0 17 15 26 48 29 6 0 12 -5 12 -13z m-1482 -43 c46 -20 82 -41 82 -49 0 -8 -5 -14 -12 -14 -7 0 -22 -12 -34 -27 l-21 -27 -37 22 c-20 12 -57 27 -81 33 -49 12 -61 31 -50 79 6 27 9 29 38 23 18 -3 69 -21 115 -40z m-5638 -1 c0 -18 -90 -82 -115 -82 -3 0 -5 15 -5 34 0 36 3 37 113 55 4 0 7 -3 7 -7z m7875 -1 c3 -5 1 -12 -5 -16 -5 -3 -10 1 -10 9 0 18 6 21 15 7z m-5827 -15 c28 -10 24 -27 -10 -44 -20 -9 -32 -10 -52 -1 -24 11 -40 34 -32 47 6 10 66 8 94 -2z m-2898 -15 c0 -17 -52 -51 -94 -62 -57 -15 -123 -39 -253 -93 l-112 -46 -48 21 c-26 12 -66 29 -88 39 -22 10 -57 25 -77 34 -39 15 -46 32 -28 67 15 26 60 26 60 -1 0 -11 5 -20 10 -20 6 0 10 4 10 10 0 15 58 41 109 50 67 11 511 12 511 1z m1990 -33 c0 -14 -30 -48 -42 -48 -13 0 -9 22 9 42 18 21 33 23 33 6z m6742 -38 c5 0 7 4 3 9 -11 19 17 22 43 6 53 -34 73 -57 61 -72 -6 -7 -18 -13 -26 -13 -27 0 -113 -63 -133 -97 -28 -47 -53 -45 -44 5 6 37 32 120 54 177 12 30 12 30 23 8 5 -13 14 -23 19 -23z m-6630 13 c10 -9 18 -22 18 -29 0 -8 17 -22 38 -33 21 -11 45 -27 53 -37 13 -16 12 -16 -21 1 -19 9 -42 24 -51 31 -8 8 -43 17 -77 20 -34 4 -62 10 -62 15 0 12 51 49 68 49 9 0 24 -7 34 -17z m6767 2 c32 -16 47 -43 32 -58 -12 -12 -56 20 -70 51 -13 26 -3 28 38 7z m312 -11 c31 -28 23 -37 -23 -30 -42 7 -78 30 -78 49 0 15 79 1 101 -19z m-6993 4 c7 -7 12 -18 12 -25 0 -11 -5 -11 -20 -3 -11 6 -20 17 -20 25 0 18 12 19 28 3z m5460 -7 c10 -6 10 -17 -3 -57 -27 -79 -30 -79 -117 -27 -65 38 -76 48 -66 61 7 8 21 18 33 22 26 11 136 12 153 1z m-7393 -52 c-12 -45 -12 -56 1 -80 8 -16 18 -29 22 -29 81 -3 247 -21 254 -28 12 -12 -4 -18 -103 -37 -41 -8 -112 -23 -159 -34 -47 -11 -88 -21 -93 -21 -10 0 2 48 24 92 11 21 19 50 19 66 0 34 29 122 40 122 5 0 2 -23 -5 -51z m2560 21 c0 -8 -8 -16 -17 -18 -13 -2 -18 3 -18 18 0 15 5 20 18 18 9 -2 17 -10 17 -18z m63 -32 c7 -7 12 -20 12 -30 0 -10 9 -23 20 -30 41 -26 7 -78 -51 -78 -22 0 -28 6 -33 31 -8 40 -8 83 0 103 7 19 35 21 52 4z m-595 -82 c26 -13 37 -25 37 -40 0 -12 11 -37 25 -56 29 -40 31 -53 9 -71 -9 -7 -29 -37 -45 -65 l-29 -51 -78 -7 c-47 -4 -89 -3 -105 3 -31 12 -57 62 -57 110 0 30 0 31 45 24 31 -4 50 -1 61 8 20 16 97 129 92 134 -2 2 -34 -2 -71 -10 -37 -8 -96 -17 -130 -20 l-62 -6 65 35 c59 32 71 35 135 32 41 -1 86 -10 108 -20z m2075 -34 c2 -15 -2 -22 -12 -22 -9 0 -16 4 -16 9 0 5 -3 17 -6 26 -5 13 -2 16 12 13 11 -2 20 -13 22 -26z m4621 -36 c23 -30 45 -58 51 -61 22 -14 23 6 2 44 -34 60 -38 58 71 25 75 -22 116 -67 119 -127 2 -69 -1 -81 -32 -110 -17 -15 -30 -32 -30 -36 0 -4 -9 -18 -20 -31 -15 -18 -19 -31 -14 -57 6 -31 4 -34 -31 -49 -21 -8 -50 -28 -66 -43 -29 -30 -158 -101 -181 -101 -23 0 -46 31 -53 73 -6 30 -11 37 -26 32 -21 -7 -94 54 -105 88 -4 12 -12 25 -17 29 -8 5 -7 14 2 32 12 22 11 28 -18 63 -52 63 -42 121 36 205 62 66 90 77 190 78 l82 0 40 -54z m-9195 27 c-4 -10 -7 -28 -7 -39 1 -25 -19 -23 -57 6 l-25 19 35 15 c48 21 64 20 54 -1z m-1010 -17 c-3 -9 -10 -16 -15 -16 -6 0 -5 9 1 21 13 24 24 20 14 -5z m3196 -25 c0 -10 14 -51 30 -89 17 -39 30 -79 30 -89 -1 -16 -3 -15 -19 5 -11 12 -23 22 -28 22 -17 0 -114 112 -111 129 2 9 19 21 38 28 49 17 60 16 60 -6z m5353 -53 c-7 -40 -11 -44 -23 -32 -12 12 -3 44 12 44 5 0 6 5 3 10 -3 6 -2 10 4 10 6 0 8 -13 4 -32z m480 -12 c15 -19 38 -36 55 -39 16 -3 32 -13 35 -21 8 -21 -4 -126 -14 -120 -4 2 -18 32 -30 65 -17 45 -34 70 -66 97 -47 40 -53 52 -24 52 10 0 30 -15 44 -34z m-7053 18 c0 -32 -94 -103 -137 -104 -23 0 -14 46 15 78 22 25 35 30 75 31 26 1 47 -2 47 -5z m180 1 c0 -7 -81 -27 -87 -21 -13 12 12 26 48 26 21 0 39 -2 39 -5z m910 -21 c0 -8 -4 -12 -10 -9 -5 3 -10 10 -10 16 0 5 5 9 10 9 6 0 10 -7 10 -16z m5010 -44 c0 -5 -5 -10 -11 -10 -5 0 -7 5 -4 10 3 6 8 10 11 10 2 0 4 -4 4 -10z m-5770 -10 c-8 -6 -37 -9 -64 -8 -57 2 -65 -8 -37 -44 15 -18 37 -28 81 -37 41 -8 63 -18 70 -32 9 -16 7 -21 -14 -28 -13 -6 -47 -30 -75 -55 -36 -32 -61 -46 -80 -46 -16 0 -34 -7 -41 -15 -9 -11 -108 -55 -125 -55 -3 0 -14 18 -25 41 -12 22 -27 38 -33 36 -47 -19 -47 -19 -47 5 0 44 55 113 143 180 l86 64 88 2 c63 2 84 -1 73 -8z m6214 -16 c4 -11 1 -14 -11 -12 -9 2 -18 9 -21 16 -6 18 25 15 32 -4z m96 -14 c-12 -22 -25 -26 -36 -9 -7 12 12 29 34 29 10 0 10 -5 2 -20z m850 -100 c0 -13 -11 -13 -51 4 -28 12 -40 12 -82 -1 -27 -8 -51 -12 -54 -9 -10 9 41 45 63 46 11 0 29 9 40 21 l19 21 32 -36 c18 -20 33 -40 33 -46z m-5190 -44 c0 -14 -4 -28 -10 -31 -6 -4 -10 7 -10 24 0 17 5 31 10 31 6 0 10 -11 10 -24z m5149 3 c28 -6 61 -19 73 -28 l21 -18 -20 -34 c-11 -19 -31 -60 -43 -92 -13 -31 -27 -54 -30 -50 -4 5 -12 28 -19 52 -9 31 -31 64 -73 107 -56 58 -58 63 -36 67 43 8 77 7 127 -4z m-2222 -16 c63 7 65 0 25 -64 -16 -24 -31 -52 -35 -63 -7 -18 -8 -18 -27 -1 -23 21 -60 98 -60 125 0 18 3 19 22 9 13 -7 43 -9 75 -6z m-91 -109 c29 -62 32 -114 20 -366 l-9 -177 31 -36 c106 -119 126 -314 44 -407 -9 -11 -11 -18 -4 -18 18 0 62 -72 88 -145 l24 -65 -47 -23 -46 -24 84 -7 c90 -7 229 -39 360 -82 142 -47 217 -142 253 -316 35 -171 10 -486 -55 -686 -10 -32 -13 -33 -45 -27 l-34 6 0 -41 c0 -22 -5 -40 -11 -40 -14 0 -183 106 -429 270 -411 274 -514 327 -943 491 -282 108 -395 160 -576 266 -249 146 -296 198 -294 328 1 88 30 182 63 206 21 16 48 19 175 21 142 3 152 2 181 -19 28 -20 36 -21 64 -12 24 9 42 9 70 0 23 -7 61 -9 94 -5 35 4 56 3 56 -3 0 -11 18 -9 113 9 l59 11 -7 36 c-3 20 -8 43 -11 52 -3 12 8 19 49 28 62 14 127 54 127 79 0 9 -9 23 -20 30 -11 7 -72 60 -136 119 -102 95 -114 109 -109 133 5 22 1 29 -20 38 -14 7 -34 12 -44 12 -10 0 -30 9 -44 20 -14 11 -44 31 -67 44 l-41 23 28 23 c21 17 37 21 65 17 21 -3 41 -1 44 4 7 12 53 35 87 43 24 6 27 4 27 -21 0 -16 3 -45 6 -66 5 -30 9 -35 20 -26 8 6 14 25 14 41 0 16 9 46 19 67 19 37 24 39 148 79 70 22 180 56 245 76 64 19 138 46 165 59 26 13 61 27 76 31 15 4 31 14 34 23 6 14 8 14 21 -3 8 -10 25 -42 38 -70z m1894 2 c0 -50 -22 -87 -41 -69 -21 21 -26 85 -10 120 l16 33 18 -21 c10 -13 17 -38 17 -63z m50 9 c-7 -8 -16 -15 -21 -15 -5 0 -9 7 -9 15 0 9 9 15 21 15 18 0 19 -2 9 -15z m1414 9 c22 -9 20 -62 -4 -101 -11 -18 -23 -33 -27 -33 -5 0 -28 -18 -51 -41 -24 -22 -81 -65 -127 -94 -46 -30 -86 -59 -90 -64 -21 -35 -65 16 -65 75 0 46 0 46 30 42 35 -5 35 -5 14 28 -9 13 -15 26 -13 28 23 21 137 86 159 91 15 3 31 13 34 21 14 36 97 65 140 48z m-7059 -14 c3 -5 2 -10 -4 -10 -5 0 -13 5 -16 10 -3 6 -2 10 4 10 5 0 13 -4 16 -10z m7189 -15 c4 -10 -7 -21 -34 -35 -44 -23 -50 -24 -50 -10 0 13 52 60 66 60 7 0 14 -7 18 -15z m-1463 -35 c16 0 10 -26 -11 -45 -11 -10 -20 -29 -20 -42 0 -18 -5 -24 -17 -21 -26 5 -31 87 -6 105 9 8 24 11 31 8 8 -3 18 -5 23 -5z m-5934 -51 c117 -44 111 -40 88 -49 -29 -12 -93 -12 -140 1 -56 14 -95 30 -95 38 0 6 50 24 82 30 4 0 33 -9 65 -20z m6523 -63 c0 -52 -8 -68 -30 -56 -14 7 -19 5 -23 -10 -7 -29 -57 -28 -57 1 0 33 18 57 58 78 50 27 52 26 52 -13z m-6480 -36 c0 -6 -14 -19 -32 -28 -60 -32 -118 -94 -123 -132 -4 -30 -1 -38 25 -58 l30 -24 36 21 c58 35 129 99 179 162 25 32 52 59 60 59 7 0 23 -8 35 -18 l23 -19 -44 -24 c-37 -21 -45 -30 -47 -59 -2 -19 -11 -43 -19 -53 -15 -16 -15 -19 5 -40 12 -13 22 -34 22 -48 0 -29 17 -49 42 -49 10 0 24 -13 33 -30 9 -16 23 -30 32 -30 13 0 14 -6 7 -32 -16 -67 -10 -109 19 -130 35 -25 34 -40 -5 -94 l-31 -44 -170 0 -170 0 -31 33 c-53 57 -91 250 -82 423 5 105 4 112 -14 117 -15 4 -20 14 -20 40 0 40 -16 34 145 56 86 12 95 12 95 1z m-982 -52 l3 -47 -38 15 c-48 20 -73 42 -73 65 0 16 7 18 53 16 l52 -2 3 -47z m189 9 c-6 -15 -55 -29 -70 -20 -5 3 4 18 20 33 24 24 30 27 42 15 7 -7 11 -20 8 -28z m503 -2 c7 -8 21 -56 31 -106 18 -86 18 -93 2 -119 -15 -26 -15 -32 -3 -57 20 -39 30 -253 12 -253 -22 0 -76 26 -91 44 -8 10 -32 26 -53 37 -48 25 -138 111 -138 133 0 10 17 24 43 35 26 11 47 29 55 45 7 16 20 26 32 26 35 0 70 30 70 59 0 15 -5 32 -11 38 -9 9 -9 19 0 42 11 24 10 33 -3 53 -9 14 -13 28 -9 31 12 12 50 7 63 -8z m5240 -15 c0 -15 -5 -12 -26 11 -19 22 -19 22 4 10 12 -6 22 -16 22 -21z m770 -5 c0 -8 -7 -15 -16 -15 -14 0 -14 3 -4 15 7 8 14 15 16 15 2 0 4 -7 4 -15z m-6434 -57 c4 -6 0 -16 -9 -23 -10 -7 -17 -17 -17 -23 0 -19 -47 -44 -70 -37 -24 8 -41 36 -31 53 9 15 70 41 98 42 12 0 25 -5 29 -12z m5664 -52 c0 -7 -9 -42 -20 -76 -11 -34 -20 -74 -20 -87 0 -13 -9 -44 -20 -67 -13 -29 -25 -94 -35 -197 -26 -255 -75 -632 -86 -667 -19 -60 -19 -28 1 89 21 122 25 215 11 238 -14 22 -39 -3 -46 -48 -9 -52 -22 -81 -39 -81 -18 0 -57 53 -103 139 -20 39 -42 71 -49 71 -7 0 -25 22 -41 50 -15 27 -31 50 -35 50 -12 0 -97 145 -100 170 -3 21 2 25 32 30 34 5 35 7 45 65 10 56 13 60 39 63 l29 4 -6 69 c-5 61 -4 70 14 79 10 6 19 19 19 29 0 10 8 25 18 33 22 20 63 41 68 35 2 -2 -9 -43 -26 -90 -31 -89 -37 -144 -21 -175 5 -9 15 -43 22 -74 8 -37 17 -58 26 -58 8 0 24 -7 38 -16 22 -14 27 -14 64 5 22 12 46 31 52 44 6 12 19 30 27 40 47 54 46 148 -4 232 -14 25 -24 45 -21 45 2 0 24 -7 47 -15 23 -8 44 -15 45 -15 1 0 5 18 9 40 3 23 13 43 21 46 11 5 12 11 5 24 -6 10 -10 25 -10 32 1 17 50 -39 50 -56z m742 35 c34 -15 54 -29 52 -36 -5 -12 -18 -11 -111 10 -14 3 -23 13 -23 24 0 19 10 33 20 29 3 -2 31 -14 62 -27z m-2929 5 c3 -8 32 -32 64 -54 54 -36 93 -72 80 -72 -3 0 -33 9 -68 19 -39 12 -114 22 -191 26 -159 9 -166 22 -35 64 102 34 142 38 150 17z m2752 -5 c3 -6 -11 -15 -32 -20 -50 -14 -58 -14 -72 3 -10 12 -7 15 16 19 53 8 82 7 88 -2z m1654 -17 c87 -29 112 -47 93 -66 -10 -10 -26 -6 -75 19 -34 16 -77 34 -95 38 -27 5 -31 9 -21 21 15 18 9 18 98 -12z m-8189 -24 c12 -7 12 -12 -4 -28 -9 -11 -26 -22 -37 -25 -16 -4 -18 -1 -13 21 11 45 23 52 54 32z m8020 1 c0 -6 -4 -13 -10 -16 -5 -3 -10 1 -10 9 0 9 5 16 10 16 6 0 10 -4 10 -9z m-1273 -52 c37 -12 48 -35 33 -74 l-11 -28 -24 23 c-23 21 -27 22 -50 10 -22 -12 -28 -12 -42 3 -16 15 -18 15 -35 0 -15 -14 -20 -14 -39 -1 -19 12 -26 12 -56 -1 -25 -12 -33 -21 -33 -41 0 -14 -5 -31 -10 -36 -7 -7 -4 -16 10 -29 11 -10 20 -26 20 -35 0 -9 11 -22 25 -28 15 -7 22 -17 19 -25 -9 -25 44 -55 124 -72 160 -34 182 -50 182 -136 0 -38 -6 -44 -37 -40 -10 1 -10 -5 -2 -26 9 -24 7 -30 -12 -43 -12 -8 -41 -34 -65 -57 -24 -24 -50 -43 -58 -43 -18 0 -43 23 -88 80 -33 42 -43 47 -139 77 -57 17 -122 32 -143 33 -35 1 -38 -1 -26 -15 8 -9 33 -26 57 -37 57 -27 61 -37 24 -51 -17 -6 -29 -16 -27 -22 2 -5 -8 -23 -23 -38 -24 -26 -25 -29 -9 -38 16 -9 17 -13 3 -39 -20 -39 -20 -40 21 -40 27 0 37 -5 41 -20 6 -22 19 -25 57 -10 20 7 27 6 34 -7 9 -14 13 -14 40 5 69 50 45 11 -32 -50 -46 -37 -50 -38 -73 -23 -27 18 -50 11 -33 -10 15 -18 -17 -50 -75 -75 -23 -10 -46 -23 -49 -29 -4 -5 -32 -24 -64 -42 -31 -18 -68 -42 -82 -55 -14 -12 -46 -32 -72 -44 -25 -12 -54 -30 -64 -41 -56 -61 -60 8 -24 351 16 157 37 339 45 405 18 143 63 386 75 405 6 10 19 4 57 -27 51 -43 92 -67 99 -60 3 2 0 16 -6 31 -22 58 -8 60 73 10 37 -23 66 -34 79 -31 11 3 30 2 43 -3 19 -7 24 -5 29 13 3 12 6 34 6 48 0 41 30 49 160 43 63 -3 129 -10 147 -15z m1391 -108 c-7 -33 -91 -52 -155 -35 -22 6 -21 7 13 49 l36 42 54 -20 c38 -14 54 -25 52 -36z m-4148 28 c0 -6 -4 -7 -10 -4 -5 3 -10 11 -10 16 0 6 5 7 10 4 6 -3 10 -11 10 -16z m-4254 -31 c24 -17 44 -37 44 -43 0 -6 -29 -39 -65 -73 -57 -55 -67 -61 -89 -52 -19 7 -29 5 -41 -6 -13 -14 -20 -14 -45 -4 -17 7 -30 14 -30 16 0 2 17 19 38 38 20 19 57 62 82 95 25 33 49 61 53 61 5 0 29 -14 53 -32z m4394 -66 c24 -19 38 -91 26 -137 -8 -33 -25 -24 -18 10 3 18 -2 33 -16 48 -12 12 -28 39 -37 60 -15 35 -14 37 4 37 10 0 29 -8 41 -18z m2775 -85 c-1 -72 -15 -141 -27 -129 -7 7 -7 26 2 61 9 38 9 59 1 82 -6 18 -11 39 -11 48 0 13 2 13 18 -2 11 -12 17 -33 17 -60z m-3495 13 c6 -23 21 -47 35 -56 46 -30 20 -64 -48 -64 -45 0 -49 13 -31 97 8 37 14 69 14 71 0 2 4 0 10 -3 5 -3 14 -24 20 -45z m-2876 -47 c30 -27 73 -61 96 -78 42 -30 70 -65 51 -65 -58 0 -287 33 -293 43 -9 15 -3 20 54 41 26 10 50 22 54 27 3 5 -4 22 -15 38 -42 59 -18 56 53 -6z m6500 -3 c4 -21 11 -30 26 -30 25 0 26 -14 1 -39 -12 -12 -27 -17 -44 -14 -27 5 -51 -13 -94 -72 -21 -28 -22 -29 -23 -7 0 31 24 86 68 154 39 61 55 63 66 8z m-1860 -56 c23 -9 20 -24 -5 -24 -11 0 -38 -14 -60 -32 -45 -36 -56 -32 -43 14 8 28 15 34 49 39 22 3 41 7 42 8 1 0 8 -2 17 -5z m196 -69 c16 -20 10 -26 -18 -18 -12 3 -22 12 -22 19 0 19 24 18 40 -1z m1600 -35 c0 -5 -7 -10 -16 -10 -8 0 -12 5 -9 10 3 6 10 10 16 10 5 0 9 -4 9 -10z m698 -48 c13 -17 17 -62 5 -62 -14 1 -70 55 -76 73 -11 30 2 40 31 21 15 -9 33 -23 40 -32z m-7442 27 c48 -12 60 -40 25 -59 -27 -14 -41 -13 -41 5 0 8 -17 22 -37 30 -30 13 -35 18 -23 25 19 12 22 12 76 -1z m5190 -31 c9 -18 51 -80 94 -138 43 -58 87 -123 98 -146 l21 -40 -52 1 c-32 0 -62 7 -77 18 -29 20 -178 25 -198 5 -9 -9 -17 -9 -34 -1 -13 6 -38 14 -57 17 -19 3 -40 15 -48 26 -8 11 -25 20 -37 20 -25 0 -45 36 -61 108 -8 37 -7 37 40 15 30 -14 39 -15 56 -4 12 7 33 10 47 7 25 -6 189 18 199 28 3 2 -3 18 -11 35 -17 31 -21 63 -9 74 10 11 11 9 29 -25z m-6023 8 c3 -8 18 -20 33 -28 15 -7 25 -17 23 -23 -5 -14 -111 -6 -127 9 -18 18 -4 49 19 43 11 -3 22 -1 25 4 8 13 21 11 27 -5z m7727 4 c14 -8 17 -20 15 -61 -1 -28 -9 -57 -16 -65 -8 -7 -50 -20 -93 -29 -46 -8 -88 -23 -100 -34 -44 -39 -106 -55 -122 -29 -7 11 12 29 147 148 91 80 124 94 169 70z m-7139 -141 c-7 -52 -16 -78 -31 -93 l-22 -21 8 35 c9 39 8 59 -2 108 -5 28 -2 38 22 63 l29 31 3 -26 c2 -13 -1 -57 -7 -97z m3207 74 c25 -19 32 -31 32 -58 0 -42 -12 -50 -47 -33 -24 12 -28 19 -28 58 -1 25 -5 52 -10 59 -10 17 4 10 53 -26z m4255 -7 c3 -8 4 -22 2 -33 -14 -70 -15 -71 -35 -66 -11 3 -20 0 -20 -6 0 -6 -7 -11 -15 -11 -20 0 -20 1 15 70 31 61 43 72 53 46z m-7953 -33 c0 -10 -42 -53 -51 -53 -5 0 0 13 9 30 15 27 42 41 42 23z m7820 -8 c16 -20 5 -61 -28 -105 -14 -18 -49 -77 -77 -129 -28 -53 -59 -97 -68 -99 -11 -2 -22 10 -34 35 -15 31 -26 40 -63 50 -25 7 -62 27 -83 44 -34 28 -37 33 -25 50 17 25 195 109 231 109 35 0 88 22 106 43 17 21 25 21 41 2z m-7460 -134 c0 -5 -7 -11 -15 -15 -15 -5 -20 5 -8 17 9 10 23 9 23 -2z m7007 -65 c16 -13 46 -55 68 -92 22 -38 51 -81 64 -97 l25 -30 -45 -39 c-24 -21 -57 -46 -74 -55 -16 -8 -34 -22 -38 -29 -5 -10 -17 -12 -34 -8 -23 6 -35 -2 -99 -72 l-72 -79 -42 23 c-51 27 -72 27 -126 3 -31 -14 -46 -29 -60 -60 -10 -23 -21 -41 -26 -41 -4 0 -13 20 -21 46 -25 88 -81 139 -159 147 -22 2 -22 6 -2 35 18 26 127 102 146 102 22 0 38 -22 38 -51 0 -15 7 -29 15 -33 8 -3 15 -17 15 -30 0 -19 4 -24 15 -19 9 3 25 -3 36 -12 19 -18 21 -17 62 12 23 17 44 39 46 49 2 10 10 23 17 29 10 7 15 33 17 77 2 64 1 68 -33 103 l-35 36 30 24 c43 34 58 36 113 10 38 -17 57 -35 77 -70 15 -25 29 -44 31 -42 10 9 -27 101 -45 114 -18 12 -19 18 -10 36 24 44 63 49 106 13z m451 -183 l3 -41 -63 -4 c-35 -2 -64 -4 -64 -3 -1 0 -4 9 -8 21 -5 18 2 25 41 47 68 36 87 32 91 -20z m-1231 -295 c-31 -23 -35 -38 -8 -38 10 0 30 -9 44 -20 14 -11 42 -27 62 -36 l36 -15 -48 -41 c-26 -23 -48 -49 -48 -59 0 -9 -7 -25 -16 -35 -27 -32 -31 -44 -19 -59 9 -10 7 -22 -8 -52 -17 -32 -18 -40 -6 -51 19 -17 18 -52 -2 -82 -45 -68 -165 -172 -180 -157 -3 2 0 16 6 31 11 30 13 79 4 89 -4 3 -16 2 -26 -4 -20 -11 -20 -8 -16 153 4 135 8 172 25 215 34 86 98 148 181 177 47 17 55 10 19 -16z m397 -153 c-7 -16 -30 -20 -38 -6 -7 11 4 21 25 21 12 0 16 -5 13 -15z m151 -15 c4 -6 -5 -10 -19 -10 -14 0 -26 5 -26 10 0 6 9 10 19 10 11 0 23 -4 26 -10z m-105 -112 c0 -5 -4 -8 -10 -8 -5 0 -10 10 -10 23 0 18 2 19 10 7 5 -8 10 -18 10 -22z m-2515 -710 c166 -84 295 -182 295 -224 0 -11 -6 -13 -22 -8 -38 11 -78 34 -78 44 0 19 -31 40 -48 31 -24 -13 -129 52 -224 140 -117 107 -105 109 77 17z"/>
</g>
</svg>